<svg width="767" height="694" xmlns="http://www.w3.org/2000/svg" xmlns:xlink="http://www.w3.org/1999/xlink" overflow="hidden"><defs><clipPath id="clip0"><path d="M273 340 1040 340 1040 1034 273 1034Z" fill-rule="evenodd" clip-rule="evenodd"/></clipPath></defs><g clip-path="url(#clip0)" transform="translate(-273 -340)"><path d="M0 0 0.000104987 15.0347" stroke="#00B050" stroke-width="2.66667" stroke-linecap="round" stroke-linejoin="bevel" stroke-miterlimit="10" fill="none" fill-rule="evenodd" transform="matrix(0.855977 -0.517013 -0.517013 -0.855977 408.077 578.343)"/><path d="M0 0 15.0364 0.000104987" stroke="#FF0000" stroke-width="2.66667" stroke-linecap="round" stroke-linejoin="round" stroke-miterlimit="10" fill="none" fill-rule="evenodd" transform="matrix(-0.855977 0.517013 0.517013 0.855977 420.948 570.569)"/><path d="M0 0 0.000104987 15.0347" stroke="#00B050" stroke-width="2.66667" stroke-linecap="round" stroke-linejoin="bevel" stroke-miterlimit="10" fill="none" fill-rule="evenodd" transform="matrix(1 0 0 -1 582.5 495.535)"/><path d="M0 0 15.0364 0.000104987" stroke="#FF0000" stroke-width="2.66667" stroke-linecap="round" stroke-linejoin="round" stroke-miterlimit="10" fill="none" fill-rule="evenodd" transform="matrix(-1 -8.74228e-08 -8.74228e-08 1 597.536 495.5)"/><path d="M276 593.832 276 409.168C276 383.67 296.67 363 322.168 363L563 363 563 640 322.168 640C296.67 640 276 619.33 276 593.832Z" stroke="#D0CECE" stroke-width="2" stroke-linecap="round" stroke-linejoin="round" stroke-miterlimit="10" fill="none" fill-rule="evenodd"/><path d="M454 569 466.519 569 466.519 602.481 509 602.481 509 615 454 615Z" stroke="#D0CECE" stroke-width="2" stroke-linecap="round" stroke-linejoin="round" stroke-miterlimit="10" fill="none" fill-rule="evenodd"/><rect x="454" y="485" width="30" height="12" stroke="#D0CECE" stroke-width="2" stroke-linecap="round" stroke-linejoin="round" stroke-miterlimit="10" fill="none"/><rect x="454" y="401" width="60" height="12" stroke="#D0CECE" stroke-width="2" stroke-linecap="round" stroke-linejoin="round" stroke-miterlimit="10" fill="none"/><path d="M369 485 369 497.761 335.825 497.761 335.825 502 323 502 323 485Z" stroke="#D0CECE" stroke-width="2" stroke-linecap="round" stroke-linejoin="round" stroke-miterlimit="10" fill="none" fill-rule="evenodd"/><rect x="344" y="413" width="13" height="13" stroke="#D0CECE" stroke-width="2" stroke-linecap="round" stroke-linejoin="round" stroke-miterlimit="10" fill="none"/><path d="M324.522 408.782 335.634 402.566 341.795 413.581 330.683 419.797Z" stroke="#D0CECE" stroke-width="2" stroke-linecap="round" stroke-linejoin="round" stroke-miterlimit="10" fill="none" fill-rule="evenodd"/><path d="M326.011 422.6 338.63 420.91 340.306 433.419 327.686 435.11Z" stroke="#D0CECE" stroke-width="2" stroke-linecap="round" stroke-linejoin="round" stroke-miterlimit="10" fill="none" fill-rule="evenodd"/><path d="M344.455 429.489 357.12 430.805 355.815 443.359 343.151 442.042Z" stroke="#D0CECE" stroke-width="2" stroke-linecap="round" stroke-linejoin="round" stroke-miterlimit="10" fill="none" fill-rule="evenodd"/><path d="M321.17 562.327 333.496 559.137 336.658 571.356 324.332 574.546Z" stroke="#D0CECE" stroke-width="2" stroke-linecap="round" stroke-linejoin="round" stroke-miterlimit="10" fill="none" fill-rule="evenodd"/><path d="M331.632 576.81 344.313 577.96 343.173 590.529 330.493 589.38Z" stroke="#D0CECE" stroke-width="2" stroke-linecap="round" stroke-linejoin="round" stroke-miterlimit="10" fill="none" fill-rule="evenodd"/><path d="M347.22 574.068 359.836 572.351 361.538 584.857 348.922 586.574Z" stroke="#D0CECE" stroke-width="2" stroke-linecap="round" stroke-linejoin="round" stroke-miterlimit="10" fill="none" fill-rule="evenodd"/><path d="M349.356 555.21 361.848 557.677 359.402 570.059 346.911 567.592Z" stroke="#D0CECE" stroke-width="2" stroke-linecap="round" stroke-linejoin="round" stroke-miterlimit="10" fill="none" fill-rule="evenodd"/><path d="M401 585.5C401 581.358 404.358 578 408.5 578 412.642 578 416 581.358 416 585.5 416 589.642 412.642 593 408.5 593 404.358 593 401 589.642 401 585.5Z" stroke="#A6A6A6" stroke-width="2" stroke-linecap="round" stroke-linejoin="round" stroke-miterlimit="10" fill="none" fill-rule="evenodd"/><path d="M0 0 0.000104987 15.0347" stroke="#00B050" stroke-width="2.66667" stroke-linecap="round" stroke-linejoin="bevel" stroke-miterlimit="10" fill="none" fill-rule="evenodd" transform="matrix(0.759294 -0.650748 -0.650748 -0.759294 408.077 585.901)"/><path d="M0 0 15.0364 0.000104987" stroke="#FF0000" stroke-width="2.66667" stroke-linecap="round" stroke-linejoin="round" stroke-miterlimit="10" fill="none" fill-rule="evenodd" transform="matrix(-0.759294 0.650748 0.650748 0.759294 419.494 576.116)"/><path d="M0 0 0.000104987 15.0347" stroke="#00B050" stroke-width="2.66667" stroke-linecap="round" stroke-linejoin="bevel" stroke-miterlimit="10" fill="none" fill-rule="evenodd" transform="matrix(0.993579 -0.113143 -0.113143 -0.993579 377.837 472.334)"/><path d="M0 0 15.0364 0.000104987" stroke="#FF0000" stroke-width="2.66667" stroke-linecap="round" stroke-linejoin="round" stroke-miterlimit="10" fill="none" fill-rule="evenodd" transform="matrix(-0.993579 0.113143 0.113143 0.993579 392.777 470.633)"/><path d="M0 0 0.000104987 15.0347" stroke="#00B050" stroke-width="2.66667" stroke-linecap="round" stroke-linejoin="bevel" stroke-miterlimit="10" fill="none" fill-rule="evenodd" transform="matrix(0.797768 -0.602965 -0.602965 -0.797768 355.158 457.214)"/><path d="M0 0 15.0364 0.000104987" stroke="#FF0000" stroke-width="2.66667" stroke-linecap="round" stroke-linejoin="round" stroke-miterlimit="10" fill="none" fill-rule="evenodd" transform="matrix(-0.797768 0.602965 0.602965 0.797768 367.153 448.148)"/><path d="M0.462566-0.886585 167.247 86.1316C167.737 86.3871 167.927 86.9911 167.671 87.4808 167.416 87.9704 166.812 88.1602 166.322 87.9048L-0.462566 0.886585C-0.952213 0.631117-1.14205 0.0270813-0.886585-0.462566-0.631117-0.952213-0.0270813-1.14205 0.462566-0.886585ZM166.785 87.0182 163.907 81.0049 173.878 90.7187 160.206 88.0975Z" transform="matrix(-1 -8.74228e-08 -8.74228e-08 1 581.878 495)"/><path d="M355.555 456.168 371.578 466.85C372.038 467.156 372.162 467.777 371.855 468.237 371.549 468.696 370.928 468.821 370.469 468.514L354.445 457.832C353.986 457.526 353.862 456.905 354.168 456.445 354.474 455.986 355.095 455.862 355.555 456.168ZM371.023 467.682 368.804 461.396 377.68 472.12 364.367 468.052Z" fill="#BFBFBF"/><path d="M581.632 495.786 362.727 459.302C362.182 459.211 361.814 458.696 361.905 458.151 361.996 457.606 362.511 457.238 363.056 457.329L581.961 493.813C582.506 493.904 582.874 494.419 582.783 494.964 582.692 495.509 582.177 495.877 581.632 495.786ZM362.891 458.315 367.494 463.138 355 457 368.81 455.246Z" fill="#0070C0"/><text font-family="Consolas,Consolas_MSFontService,sans-serif" font-weight="400" font-size="11" transform="translate(281.251 517)">rb1_base_c_odom</text><path d="M0.245131-0.435788 60.7243 33.5837C60.965 33.7191 61.0503 34.024 60.9149 34.2647 60.7796 34.5053 60.4747 34.5907 60.234 34.4553L-0.245131 0.435788C-0.48581 0.300406-0.57117-0.00445166-0.435788-0.245131-0.300406-0.48581 0.00445166-0.57117 0.245131-0.435788ZM61.7865 31.6953C63.0701 32.4174 63.5254 34.0433 62.8034 35.3269 62.0813 36.6105 60.4554 37.0658 59.1718 36.3437 57.8882 35.6217 57.4329 33.9958 58.155 32.7122 58.877 31.4285 60.5029 30.9733 61.7865 31.6953Z" transform="matrix(1 0 0 -1 317.5 506.52)"/><path d="M0.416025-0.27735 30.6556 45.082C30.8088 45.3118 30.7467 45.6222 30.5169 45.7754 30.2872 45.9286 29.9767 45.8665 29.8236 45.6367L-0.416025 0.27735C-0.569201 0.0475857-0.507114-0.262849-0.27735-0.416025-0.0475857-0.569201 0.262849-0.507114 0.416025-0.27735ZM32.4584 43.8802C33.2753 45.1056 32.9442 46.7612 31.7188 47.5782 30.4934 48.3951 28.8377 48.064 28.0208 46.8386 27.2038 45.6132 27.535 43.9575 28.7604 43.1406 29.9858 42.3236 31.6414 42.6548 32.4584 43.8802Z" transform="matrix(-1 -8.74228e-08 -8.74228e-08 1 385.74 412.5)"/><text font-family="Consolas,Consolas_MSFontService,sans-serif" font-weight="400" font-size="11" transform="translate(344.647 407)">rb1_base_c_map</text><path d="M454.39 593.261 408.433 586.995C408.159 586.958 407.967 586.706 408.005 586.432 408.042 586.159 408.294 585.967 408.568 586.005L454.525 592.271C454.798 592.308 454.99 592.56 454.953 592.834 454.915 593.107 454.663 593.299 454.39 593.261ZM408.14 589.142C406.681 588.943 405.659 587.599 405.858 586.14 406.057 584.681 407.401 583.659 408.86 583.858 410.32 584.057 411.341 585.401 411.142 586.86 410.943 588.32 409.599 589.341 408.14 589.142Z"/><text font-family="Consolas,Consolas_MSFontService,sans-serif" font-weight="400" font-size="11" transform="translate(455.992 580)">vicon<tspan x="29.1667" y="0">/rb1_base_c</tspan><tspan x="14.5867" y="13">/rb1_base_c</tspan></text><path d="M604.956 507.287 582.276 495.947C582.029 495.824 581.929 495.523 582.053 495.276 582.176 495.029 582.477 494.929 582.724 495.053L605.403 506.393C605.65 506.516 605.75 506.817 605.627 507.064 605.503 507.31 605.203 507.411 604.956 507.287ZM581.307 497.885C579.99 497.227 579.456 495.625 580.115 494.307 580.774 492.99 582.375 492.456 583.693 493.115 585.01 493.774 585.544 495.375 584.885 496.693 584.227 498.01 582.625 498.544 581.307 497.885Z"/><text font-family="Consolas,Consolas_MSFontService,sans-serif" font-weight="400" font-size="11" transform="translate(572.634 521)">vicon_world</text><path d="M325.592 452.009 355.832 457.679C356.103 457.729 356.282 457.991 356.231 458.262 356.18 458.534 355.919 458.712 355.647 458.661L325.408 452.991C325.137 452.941 324.958 452.679 325.009 452.408 325.06 452.137 325.321 451.958 325.592 452.009ZM356.231 455.549C357.679 455.82 358.632 457.214 358.361 458.661 358.089 460.109 356.696 461.062 355.248 460.791 353.801 460.52 352.847 459.126 353.119 457.679 353.39 456.231 354.784 455.278 356.231 455.549Z"/><text font-family="Consolas,Consolas_MSFontService,sans-serif" font-weight="400" font-size="11" transform="translate(287.738 456)">world</text><path d="M0.430967-0.25351 38.2304 64.0056C38.3705 64.2436 38.291 64.5501 38.053 64.6901 37.815 64.8301 37.5085 64.7506 37.3685 64.5126L-0.430967 0.25351C-0.570977 0.0154935-0.491527-0.290957-0.25351-0.430967-0.0154935-0.570977 0.290957-0.491527 0.430967-0.25351ZM40.098 62.9071C40.8447 64.1765 40.421 65.8109 39.1515 66.5576 37.8821 67.3043 36.2477 66.8806 35.501 65.6112 34.7543 64.3417 35.178 62.7073 36.4474 61.9606 37.7168 61.2139 39.3512 61.6376 40.098 62.9071Z" transform="matrix(-1 -8.74228e-08 -8.74228e-08 1 446.3 514.5)"/><text font-family="Consolas,Consolas_MSFontService,sans-serif" font-weight="400" font-size="11" transform="translate(393.04 505)">rb1_base_c_base_footprint<tspan x="58.3333" y="13">…</tspan><tspan x="64.1667" y="13">base_link</tspan><tspan x="58.3333" y="26">…</tspan><tspan x="64.1667" y="26">laser_link</tspan><tspan x="58.3333" y="38">…</tspan><tspan x="-113.398" y="-151">Korrektes System (t = 5):</tspan></text><path d="M378.962 471.725 407.005 569.955C407.157 570.486 406.849 571.039 406.318 571.191 405.787 571.343 405.233 571.035 405.082 570.504L377.038 472.275C376.887 471.743 377.194 471.19 377.725 471.038 378.257 470.887 378.81 471.194 378.962 471.725ZM406.043 570.229 408.426 564.003 408.24 577.922 400.733 566.199Z"/><path d="M0 0 0.000104987 15.0347" stroke="#00B050" stroke-width="2.66667" stroke-linecap="round" stroke-linejoin="bevel" stroke-miterlimit="10" fill="none" fill-rule="evenodd" transform="matrix(1 0 0 -1 968.5 495.535)"/><path d="M0 0 15.0364 0.000104987" stroke="#FF0000" stroke-width="2.66667" stroke-linecap="round" stroke-linejoin="round" stroke-miterlimit="10" fill="none" fill-rule="evenodd" transform="matrix(-1 -8.74228e-08 -8.74228e-08 1 983.536 495.5)"/><path d="M661 593.832 661 409.166C661 383.668 681.67 362.998 707.168 362.998L949 362.998 949 640 707.168 640C681.67 640 661 619.33 661 593.832Z" stroke="#D0CECE" stroke-width="2" stroke-linecap="round" stroke-linejoin="round" stroke-miterlimit="10" fill="none" fill-rule="evenodd"/><path d="M840 569 852.519 569 852.519 602.481 895 602.481 895 615 840 615Z" stroke="#D0CECE" stroke-width="2" stroke-linecap="round" stroke-linejoin="round" stroke-miterlimit="10" fill="none" fill-rule="evenodd"/><rect x="840" y="485" width="29" height="12" stroke="#D0CECE" stroke-width="2" stroke-linecap="round" stroke-linejoin="round" stroke-miterlimit="10" fill="none"/><rect x="840" y="401" width="59" height="12" stroke="#D0CECE" stroke-width="2" stroke-linecap="round" stroke-linejoin="round" stroke-miterlimit="10" fill="none"/><path d="M755 485 755 497.761 720.825 497.761 720.825 502 708 502 708 485Z" stroke="#D0CECE" stroke-width="2" stroke-linecap="round" stroke-linejoin="round" stroke-miterlimit="10" fill="none" fill-rule="evenodd"/><rect x="729" y="413" width="13" height="13" stroke="#D0CECE" stroke-width="2" stroke-linecap="round" stroke-linejoin="round" stroke-miterlimit="10" fill="none"/><path d="M710.076 408.782 721.188 402.566 727.35 413.581 716.238 419.797Z" stroke="#D0CECE" stroke-width="2" stroke-linecap="round" stroke-linejoin="round" stroke-miterlimit="10" fill="none" fill-rule="evenodd"/><path d="M711.565 422.6 724.185 420.91 725.861 433.419 713.241 435.11Z" stroke="#D0CECE" stroke-width="2" stroke-linecap="round" stroke-linejoin="round" stroke-miterlimit="10" fill="none" fill-rule="evenodd"/><path d="M730.01 429.489 742.674 430.805 741.369 443.359 728.705 442.042Z" stroke="#D0CECE" stroke-width="2" stroke-linecap="round" stroke-linejoin="round" stroke-miterlimit="10" fill="none" fill-rule="evenodd"/><path d="M706.725 562.327 719.051 559.137 722.213 571.356 709.887 574.546Z" stroke="#D0CECE" stroke-width="2" stroke-linecap="round" stroke-linejoin="round" stroke-miterlimit="10" fill="none" fill-rule="evenodd"/><path d="M717.187 576.81 729.867 577.96 728.728 590.529 716.047 589.38Z" stroke="#D0CECE" stroke-width="2" stroke-linecap="round" stroke-linejoin="round" stroke-miterlimit="10" fill="none" fill-rule="evenodd"/><path d="M732.775 574.068 745.391 572.351 747.093 584.857 734.477 586.574Z" stroke="#D0CECE" stroke-width="2" stroke-linecap="round" stroke-linejoin="round" stroke-miterlimit="10" fill="none" fill-rule="evenodd"/><path d="M734.911 555.21 747.402 557.677 744.957 570.059 732.466 567.592Z" stroke="#D0CECE" stroke-width="2" stroke-linecap="round" stroke-linejoin="round" stroke-miterlimit="10" fill="none" fill-rule="evenodd"/><path d="M786 585.5C786 581.358 789.358 578 793.5 578 797.642 578 801 581.358 801 585.5 801 589.642 797.642 593 793.5 593 789.358 593 786 589.642 786 585.5Z" stroke="#A6A6A6" stroke-width="2" stroke-linecap="round" stroke-linejoin="round" stroke-miterlimit="10" fill="none" fill-rule="evenodd"/><path d="M0 0 0.000104987 15.0347" stroke="#00B050" stroke-width="2.66667" stroke-linecap="round" stroke-linejoin="bevel" stroke-miterlimit="10" fill="none" fill-rule="evenodd" transform="matrix(0.759294 -0.650748 -0.650748 -0.759294 793.632 585.901)"/><path d="M0 0 15.0364 0.000104987" stroke="#FF0000" stroke-width="2.66667" stroke-linecap="round" stroke-linejoin="round" stroke-miterlimit="10" fill="none" fill-rule="evenodd" transform="matrix(-0.759294 0.650748 0.650748 0.759294 805.049 576.116)"/><path d="M0.462566-0.886585 167.247 86.1316C167.737 86.3871 167.927 86.9911 167.671 87.4808 167.416 87.9704 166.812 88.1602 166.322 87.9048L-0.462566 0.886585C-0.952213 0.631117-1.14205 0.0270813-0.886585-0.462566-0.631117-0.952213-0.0270813-1.14205 0.462566-0.886585ZM166.785 87.0182 163.907 81.0049 173.878 90.7187 160.206 88.0975Z" transform="matrix(-1 -8.74228e-08 -8.74228e-08 1 967.878 495)"/><path d="M866.791 385.093 893.25 403.993C893.475 404.153 893.527 404.466 893.367 404.69 893.206 404.915 892.894 404.967 892.669 404.807L866.209 385.907C865.985 385.746 865.933 385.434 866.093 385.209 866.254 384.985 866.566 384.933 866.791 385.093ZM894.51 402.23C895.708 403.086 895.986 404.751 895.13 405.95 894.274 407.148 892.608 407.426 891.41 406.57 890.211 405.714 889.934 404.048 890.79 402.85 891.646 401.651 893.311 401.374 894.51 402.23Z"/><text font-family="Consolas,Consolas_MSFontService,sans-serif" font-weight="400" font-size="11" transform="translate(783.121 381)">rb1_base_c_map</text><path d="M0 0 0.000104987 15.0347" stroke="#00B050" stroke-width="2.66667" stroke-linecap="round" stroke-linejoin="bevel" stroke-miterlimit="10" fill="none" fill-rule="evenodd" transform="matrix(1 0 0 -1 847.5 537.535)"/><path d="M0 0 15.0364 0.000104987" stroke="#FF0000" stroke-width="2.66667" stroke-linecap="round" stroke-linejoin="round" stroke-miterlimit="10" fill="none" fill-rule="evenodd" transform="matrix(-1 -8.74228e-08 -8.74228e-08 1 862.536 537.5)"/><path d="M892.962 403.725 898.324 422.493C898.475 423.024 898.168 423.577 897.637 423.729 897.106 423.881 896.552 423.573 896.401 423.042L891.038 404.275C890.887 403.744 891.194 403.19 891.725 403.038 892.256 402.887 892.81 403.194 892.962 403.725ZM897.362 422.767 899.743 416.54 899.56 430.46 892.051 418.738Z" fill="#BFBFBF"/><path d="M0.894427-0.447214 50.2361 98.2359C50.4831 98.7299 50.2829 99.3306 49.7889 99.5776 49.2949 99.8246 48.6942 99.6243 48.4472 99.1304L-0.894427 0.447214C-1.14142-0.046764-0.941193-0.647437-0.447214-0.894427 0.046764-1.14142 0.647437-0.941193 0.894427-0.447214ZM49.3417 98.6831 50.5342 92.124 52.9194 105.839 43.3788 95.7017Z" transform="matrix(-1 -8.74228e-08 -8.74228e-08 1 899.919 431)"/><path d="M966.831 495.359 896.353 410.786C896 410.362 896.057 409.731 896.481 409.378 896.906 409.024 897.536 409.081 897.89 409.506L968.367 494.079C968.721 494.503 968.664 495.134 968.239 495.487 967.815 495.841 967.185 495.784 966.831 495.359ZM897.121 410.146 897.463 416.804 892 404 903.609 411.682Z" fill="#FF0000"/><path d="M0.0262794-0.499309 71.8453 3.28064C72.121 3.29515 72.3328 3.53047 72.3183 3.80623 72.3038 4.08199 72.0685 4.29377 71.7927 4.27926L-0.0262794 0.499309C-0.30204 0.484795-0.513823 0.249481-0.499309-0.0262794-0.484795-0.30204-0.249481-0.513823 0.0262794-0.499309ZM71.9592 1.11697C73.4299 1.19437 74.5594 2.44938 74.482 3.9201 74.4046 5.39083 73.1496 6.52034 71.6788 6.44293 70.2081 6.36552 69.0786 5.11051 69.156 3.63979 69.2334 2.16907 70.4884 1.03956 71.9592 1.11697Z" transform="matrix(1 0 0 -1 820.5 408.28)"/><text font-family="Consolas,Consolas_MSFontService,sans-serif" font-weight="400" font-size="11" transform="translate(786.691 411)">world<tspan x="-121.495" y="-57">Fehlerhafter </tspan><tspan x="-45.6614" y="-57">Transformation</tspan><tspan x="41.8386" y="-57">von</tspan><tspan x="65.1719" y="-57">vicon_world</tspan><tspan x="135.172" y="-57">zu</tspan><tspan x="152.672" y="-57">…_</tspan><tspan x="164.339" y="-57">map</tspan><tspan x="187.672" y="-57">(</tspan><tspan x="193.505" y="-57">t = 5):</tspan></text><path d="M840.39 593.261 794.432 586.995C794.159 586.958 793.967 586.706 794.005 586.432 794.042 586.159 794.294 585.967 794.568 586.005L840.525 592.271C840.798 592.308 840.99 592.56 840.953 592.834 840.915 593.107 840.663 593.299 840.39 593.261ZM794.14 589.142C792.681 588.943 791.659 587.599 791.858 586.14 792.057 584.681 793.401 583.659 794.86 583.858 796.32 584.057 797.341 585.401 797.142 586.86 796.943 588.32 795.599 589.341 794.14 589.142Z"/><text font-family="Consolas,Consolas_MSFontService,sans-serif" font-weight="400" font-size="11" transform="translate(841.547 583)">vicon<tspan x="29.1667" y="0">/rb1_base_c</tspan><tspan x="14.5867" y="13">/rb1_base_c</tspan></text><path d="M0 0 0.000104987 15.0347" stroke="#00B050" stroke-width="2.66667" stroke-linecap="round" stroke-linejoin="bevel" stroke-miterlimit="10" fill="none" fill-rule="evenodd" transform="matrix(1 0 0 -1 892.5 404.535)"/><path d="M0 0 15.0364 0.000104987" stroke="#FF0000" stroke-width="2.66667" stroke-linecap="round" stroke-linejoin="round" stroke-miterlimit="10" fill="none" fill-rule="evenodd" transform="matrix(-1 -8.74228e-08 -8.74228e-08 1 907.536 404.5)"/><path d="M0 0 0.000104987 15.0348" stroke="#00B050" stroke-width="2.66667" stroke-linecap="round" stroke-linejoin="bevel" stroke-miterlimit="10" fill="none" fill-rule="evenodd" transform="matrix(0.792266 0.610175 0.610175 -0.792266 899.47 430.755)"/><path d="M0 0 15.0364 0.000104987" stroke="#FF0000" stroke-width="2.66667" stroke-linecap="round" stroke-linejoin="round" stroke-miterlimit="10" fill="none" fill-rule="evenodd" transform="matrix(-0.792266 -0.610175 -0.610175 0.792266 911.383 439.93)"/><path d="M790.628 522.017 847.327 537.053C847.594 537.124 847.753 537.398 847.683 537.665 847.612 537.932 847.338 538.091 847.071 538.02L790.372 522.983C790.105 522.913 789.946 522.639 790.017 522.372 790.088 522.105 790.361 521.946 790.628 522.017ZM847.883 534.959C849.306 535.336 850.154 536.797 849.777 538.22 849.399 539.644 847.939 540.492 846.516 540.114 845.092 539.737 844.244 538.276 844.622 536.853 844.999 535.429 846.459 534.581 847.883 534.959Z"/><text font-family="Consolas,Consolas_MSFontService,sans-serif" font-weight="400" font-size="11" transform="translate(665.197 513)">rb1_base_c_base_footprint<tspan x="58.3333" y="13">…</tspan><tspan x="64.1666" y="13">base_link</tspan><tspan x="58.3333" y="26">…</tspan><tspan x="64.1666" y="26">laser_link</tspan><tspan x="58.3333" y="38">…</tspan><tspan x="92.3281" y="-76">rb1_base_c_odom</tspan></text><path d="M0.0192166-0.499631 49.1585 1.39034C49.4345 1.40096 49.6496 1.63325 49.6389 1.90919 49.6283 2.18513 49.396 2.40022 49.1201 2.3896L-0.0192166 0.499631C-0.295155 0.489018-0.510244 0.256722-0.499631-0.0192166-0.489018-0.295155-0.256722-0.510244 0.0192166-0.499631ZM49.2418-0.774723C50.7135-0.71812 51.8606 0.520791 51.804 1.99246 51.7474 3.46413 50.5085 4.61127 49.0368 4.55467 47.5652 4.49807 46.418 3.25916 46.4746 1.78749 46.5312 0.315814 47.7701-0.831325 49.2418-0.774723Z" transform="matrix(1 0 0 -1 850.5 433.39)"/><path d="M866.791 385.093 893.25 403.993C893.475 404.153 893.527 404.466 893.367 404.69 893.206 404.915 892.894 404.967 892.669 404.807L866.209 385.907C865.985 385.746 865.933 385.434 866.093 385.209 866.254 384.985 866.566 384.933 866.791 385.093ZM894.51 402.23C895.708 403.086 895.986 404.751 895.13 405.95 894.274 407.148 892.608 407.426 891.41 406.57 890.211 405.714 889.934 404.048 890.79 402.85 891.646 401.651 893.311 401.374 894.51 402.23Z"/><text font-family="Consolas,Consolas_MSFontService,sans-serif" font-weight="400" font-size="11" transform="translate(783.121 381)">rb1_base_c_map</text><path d="M0.0262794-0.499309 71.8453 3.28064C72.121 3.29515 72.3328 3.53047 72.3183 3.80623 72.3038 4.08199 72.0685 4.29377 71.7927 4.27926L-0.0262794 0.499309C-0.30204 0.484795-0.513823 0.249481-0.499309-0.0262794-0.484795-0.30204-0.249481-0.513823 0.0262794-0.499309ZM71.9592 1.11697C73.4299 1.19437 74.5594 2.44938 74.482 3.9201 74.4046 5.39083 73.1496 6.52034 71.6788 6.44293 70.2081 6.36552 69.0786 5.11051 69.156 3.63979 69.2334 2.16907 70.4884 1.03956 71.9592 1.11697Z" transform="matrix(1 0 0 -1 820.5 408.28)"/><text font-family="Consolas,Consolas_MSFontService,sans-serif" font-weight="400" font-size="11" transform="translate(786.691 411)">world</text><path d="M990.956 507.287 968.276 495.947C968.029 495.824 967.929 495.523 968.053 495.276 968.176 495.029 968.477 494.929 968.724 495.053L991.403 506.393C991.65 506.516 991.75 506.817 991.627 507.064 991.503 507.31 991.203 507.411 990.956 507.287ZM967.307 497.885C965.99 497.227 965.456 495.625 966.115 494.307 966.774 492.99 968.375 492.456 969.693 493.115 971.01 493.774 971.544 495.375 970.885 496.693 970.227 498.01 968.625 498.544 967.307 497.885Z"/><text font-family="Consolas,Consolas_MSFontService,sans-serif" font-weight="400" font-size="11" transform="translate(958.189 521)">vicon_world</text><path d="M310 982.5C310 978.358 313.358 975 317.5 975 321.642 975 325 978.358 325 982.5 325 986.642 321.642 990 317.5 990 313.358 990 310 986.642 310 982.5Z" stroke="#A6A6A6" stroke-width="2" stroke-linecap="round" stroke-linejoin="round" stroke-miterlimit="10" fill="none" fill-rule="evenodd"/><text font-family="Consolas,Consolas_MSFontService,sans-serif" font-weight="400" font-size="11" transform="translate(328.781 985)">: Tatsächliche Roboterposition</text><path d="M8-0.999968 26.4596-0.999895C27.0119-0.999893 27.4596-0.552176 27.4596 0.000108955 27.4596 0.552394 27.0119 1.00011 26.4596 1.0001L7.99999 1.00003C7.44771 1.00003 7 0.552313 7 2.77747e-05 7-0.552257 7.44772-0.99997 8-0.999968ZM8 3.17425e-05 13.3333 4.00005 0 0 13.3333-3.99995Z" transform="matrix(-1 -8.74228e-08 -8.74228e-08 1 325.46 1002)"/><text font-family="Consolas,Consolas_MSFontService,sans-serif" font-weight="400" font-size="11" transform="translate(328.781 1004)">: Dynamische Transformation</text><path d="M8-0.999968 26.4596-0.999895C27.0119-0.999893 27.4596-0.552176 27.4596 0.000108955 27.4596 0.552394 27.0119 1.00011 26.4596 1.0001L7.99999 1.00003C7.44771 1.00003 7 0.552313 7 2.77747e-05 7-0.552257 7.44772-0.99997 8-0.999968ZM8 3.17425e-05 13.3333 4.00005 0 0 13.3333-3.99995Z" fill="#7030A0" transform="matrix(-1 -8.74228e-08 -8.74228e-08 1 774.46 1002)"/><text fill="#7030A0" font-family="Consolas,Consolas_MSFontService,sans-serif" font-weight="400" font-size="11" transform="translate(778.595 1004)">: Transformation mit SLAM</text><path d="M8-0.999968 26.4596-0.999895C27.0119-0.999893 27.4596-0.552176 27.4596 0.000108955 27.4596 0.552394 27.0119 1.00011 26.4596 1.0001L7.99999 1.00003C7.44771 1.00003 7 0.552313 7 2.77747e-05 7-0.552257 7.44772-0.99997 8-0.999968ZM8 3.17425e-05 13.3333 4.00005 0 0 13.3333-3.99995Z" fill="#0070C0" transform="matrix(-1 -8.74228e-08 -8.74228e-08 1 559.46 1002)"/><text fill="#0070C0" font-family="Consolas,Consolas_MSFontService,sans-serif" font-weight="400" font-size="11" transform="translate(563.138 1004)">: Statische Transformation</text><path d="M8-0.999968 26.4596-0.999895C27.0119-0.999893 27.4596-0.552176 27.4596 0.000108955 27.4596 0.552394 27.0119 1.00011 26.4596 1.0001L7.99999 1.00003C7.44771 1.00003 7 0.552313 7 2.77747e-05 7-0.552257 7.44772-0.99997 8-0.999968ZM8 3.17425e-05 13.3333 4.00005 0 0 13.3333-3.99995Z" fill="#FFC000" transform="matrix(-1 -8.74228e-08 -8.74228e-08 1 774.46 1021)"/><text fill="#FFC000" font-family="Consolas,Consolas_MSFontService,sans-serif" font-weight="400" font-size="11" transform="translate(778.595 1023)">: Transformation ohne SLAM</text><path d="M8-0.999968 26.4596-0.999895C27.0119-0.999893 27.4596-0.552176 27.4596 0.000108955 27.4596 0.552394 27.0119 1.00011 26.4596 1.0001L7.99999 1.00003C7.44771 1.00003 7 0.552313 7 2.77747e-05 7-0.552257 7.44772-0.99997 8-0.999968ZM8 3.17425e-05 13.3333 4.00005 0 0 13.3333-3.99995Z" fill="#FF0000" transform="matrix(-1 -8.74228e-08 -8.74228e-08 1 325.46 1021)"/><text fill="#FF0000" font-family="Consolas,Consolas_MSFontService,sans-serif" font-weight="400" font-size="11" transform="translate(328.781 1023)">: Fehlerhafte Transformation</text><path d="M0 0 0.000104987 15.0347" stroke="#00B050" stroke-width="2.66667" stroke-linecap="round" stroke-linejoin="bevel" stroke-miterlimit="10" fill="none" fill-rule="evenodd" transform="matrix(0.899025 0.437897 0.437897 -0.899025 733.486 861.835)"/><path d="M0 0 15.0364 0.000104987" stroke="#FF0000" stroke-width="2.66667" stroke-linecap="round" stroke-linejoin="round" stroke-miterlimit="10" fill="none" fill-rule="evenodd" transform="matrix(-0.899025 -0.437897 -0.437897 0.899025 747.004 868.419)"/><path d="M0 0 0.000104987 15.0347" stroke="#00B050" stroke-width="2.66667" stroke-linecap="round" stroke-linejoin="bevel" stroke-miterlimit="10" fill="none" fill-rule="evenodd" transform="matrix(0.855977 -0.517013 -0.517013 -0.855977 793.798 899.638)"/><path d="M0 0 15.0364 0.000104987" stroke="#FF0000" stroke-width="2.66667" stroke-linecap="round" stroke-linejoin="round" stroke-miterlimit="10" fill="none" fill-rule="evenodd" transform="matrix(-0.855977 0.517013 0.517013 0.855977 806.669 891.864)"/><path d="M0 0 0.000104987 15.0347" stroke="#00B050" stroke-width="2.66667" stroke-linecap="round" stroke-linejoin="bevel" stroke-miterlimit="10" fill="none" fill-rule="evenodd" transform="matrix(0.993579 -0.113143 -0.113143 -0.993579 763.559 793.63)"/><path d="M0 0 15.0364 0.000104987" stroke="#FF0000" stroke-width="2.66667" stroke-linecap="round" stroke-linejoin="round" stroke-miterlimit="10" fill="none" fill-rule="evenodd" transform="matrix(-0.993579 0.113143 0.113143 0.993579 778.498 791.929)"/><path d="M0 0 0.000104987 15.0347" stroke="#00B050" stroke-width="2.66667" stroke-linecap="round" stroke-linejoin="bevel" stroke-miterlimit="10" fill="none" fill-rule="evenodd" transform="matrix(1 0 0 -1 968.5 816.535)"/><path d="M0 0 15.0364 0.000104987" stroke="#FF0000" stroke-width="2.66667" stroke-linecap="round" stroke-linejoin="round" stroke-miterlimit="10" fill="none" fill-rule="evenodd" transform="matrix(-1 -8.74228e-08 -8.74228e-08 1 983.536 816.5)"/><path d="M662 914.832 662 730.168C662 704.67 682.67 684 708.168 684L949 684 949 961 708.168 961C682.67 961 662 940.33 662 914.832Z" stroke="#D0CECE" stroke-width="2" stroke-linecap="round" stroke-linejoin="round" stroke-miterlimit="10" fill="none" fill-rule="evenodd"/><path d="M840 890 852.792 890 852.792 924.209 895 924.209 895 937 840 937Z" stroke="#D0CECE" stroke-width="2" stroke-linecap="round" stroke-linejoin="round" stroke-miterlimit="10" fill="none" fill-rule="evenodd"/><rect x="840" y="806" width="30" height="13" stroke="#D0CECE" stroke-width="2" stroke-linecap="round" stroke-linejoin="round" stroke-miterlimit="10" fill="none"/><rect x="840" y="722" width="59" height="13" stroke="#D0CECE" stroke-width="2" stroke-linecap="round" stroke-linejoin="round" stroke-miterlimit="10" fill="none"/><path d="M755 806 755 818.761 720.825 818.761 720.825 823 708 823 708 806Z" stroke="#D0CECE" stroke-width="2" stroke-linecap="round" stroke-linejoin="round" stroke-miterlimit="10" fill="none" fill-rule="evenodd"/><rect x="729" y="735" width="13" height="12" stroke="#D0CECE" stroke-width="2" stroke-linecap="round" stroke-linejoin="round" stroke-miterlimit="10" fill="none"/><path d="M710.243 730.078 721.355 723.862 727.517 734.877 716.404 741.093Z" stroke="#D0CECE" stroke-width="2" stroke-linecap="round" stroke-linejoin="round" stroke-miterlimit="10" fill="none" fill-rule="evenodd"/><path d="M711.732 743.896 724.352 742.205 726.028 754.715 713.408 756.405Z" stroke="#D0CECE" stroke-width="2" stroke-linecap="round" stroke-linejoin="round" stroke-miterlimit="10" fill="none" fill-rule="evenodd"/><path d="M730.177 750.784 742.841 752.101 741.536 764.654 728.872 763.338Z" stroke="#D0CECE" stroke-width="2" stroke-linecap="round" stroke-linejoin="round" stroke-miterlimit="10" fill="none" fill-rule="evenodd"/><path d="M706.891 883.623 719.218 880.433 722.38 892.651 710.053 895.841Z" stroke="#D0CECE" stroke-width="2" stroke-linecap="round" stroke-linejoin="round" stroke-miterlimit="10" fill="none" fill-rule="evenodd"/><path d="M717.353 898.106 730.034 899.255 728.894 911.825 716.214 910.675Z" stroke="#D0CECE" stroke-width="2" stroke-linecap="round" stroke-linejoin="round" stroke-miterlimit="10" fill="none" fill-rule="evenodd"/><path d="M732.941 895.364 745.558 893.647 747.26 906.152 734.644 907.87Z" stroke="#D0CECE" stroke-width="2" stroke-linecap="round" stroke-linejoin="round" stroke-miterlimit="10" fill="none" fill-rule="evenodd"/><path d="M735.078 876.505 747.569 878.973 745.123 891.354 732.632 888.887Z" stroke="#D0CECE" stroke-width="2" stroke-linecap="round" stroke-linejoin="round" stroke-miterlimit="10" fill="none" fill-rule="evenodd"/><path d="M786 907.5C786 903.358 789.358 900 793.5 900 797.642 900 801 903.358 801 907.5 801 911.642 797.642 915 793.5 915 789.358 915 786 911.642 786 907.5Z" stroke="#A6A6A6" stroke-width="2" stroke-linecap="round" stroke-linejoin="round" stroke-miterlimit="10" fill="none" fill-rule="evenodd"/><path d="M0 0 0.000104987 15.0347" stroke="#00B050" stroke-width="2.66667" stroke-linecap="round" stroke-linejoin="bevel" stroke-miterlimit="10" fill="none" fill-rule="evenodd" transform="matrix(0.759294 -0.650748 -0.650748 -0.759294 793.798 907.197)"/><path d="M0 0 15.0364 0.000104987" stroke="#FF0000" stroke-width="2.66667" stroke-linecap="round" stroke-linejoin="round" stroke-miterlimit="10" fill="none" fill-rule="evenodd" transform="matrix(-0.759294 0.650748 0.650748 0.759294 805.215 897.412)"/><path d="M0 0 0.000104987 15.0347" stroke="#00B050" stroke-width="2.66667" stroke-linecap="round" stroke-linejoin="bevel" stroke-miterlimit="10" fill="none" fill-rule="evenodd" transform="matrix(0.797768 -0.602965 -0.602965 -0.797768 740.879 778.51)"/><path d="M0 0 15.0364 0.000104987" stroke="#FF0000" stroke-width="2.66667" stroke-linecap="round" stroke-linejoin="round" stroke-miterlimit="10" fill="none" fill-rule="evenodd" transform="matrix(-0.797768 0.602965 0.602965 0.797768 752.875 769.444)"/><path d="M820.636 930.395 794.176 907.881C793.966 907.702 793.94 907.386 794.119 907.176 794.298 906.966 794.614 906.94 794.824 907.119L821.284 929.633C821.494 929.812 821.519 930.127 821.34 930.338 821.161 930.548 820.846 930.573 820.636 930.395ZM792.772 909.531C791.65 908.577 791.515 906.894 792.469 905.772 793.424 904.65 795.107 904.515 796.228 905.469 797.35 906.423 797.485 908.106 796.531 909.228 795.577 910.35 793.894 910.485 792.772 909.531Z"/><text font-family="Consolas,Consolas_MSFontService,sans-serif" font-style="italic" font-weight="400" font-size="11" transform="translate(822.151 940)">gt<tspan x="-156.788" y="-265">Überarbeitetes System (t = 5):</tspan></text><path d="M741.69 778.276 815.279 848.448C815.679 848.829 815.694 849.462 815.313 849.862 814.932 850.262 814.299 850.277 813.899 849.896L740.31 779.724C739.91 779.343 739.895 778.71 740.276 778.31 740.657 777.91 741.29 777.895 741.69 778.276ZM814.589 849.172 813.49 842.597 820.379 854.693 807.969 848.386Z" fill="#FFC000"/><path d="M741.555 778.168 757.578 788.85C758.038 789.156 758.162 789.777 757.855 790.237 757.549 790.696 756.928 790.821 756.469 790.514L740.445 779.832C739.986 779.526 739.862 778.905 740.168 778.445 740.474 777.986 741.095 777.862 741.555 778.168ZM757.023 789.682 754.805 783.396 763.68 794.12 750.367 790.052Z" fill="#7030A0"/><path d="M967.632 817.786 748.727 781.302C748.182 781.211 747.814 780.696 747.905 780.151 747.996 779.606 748.511 779.238 749.056 779.329L967.961 815.813C968.506 815.904 968.874 816.419 968.783 816.964 968.692 817.509 968.177 817.877 967.632 817.786ZM748.891 780.315 753.494 785.138 741 779 754.81 777.246Z" fill="#0070C0"/><path d="M0.283264-0.412021 30.5228 20.3777C30.7504 20.5341 30.808 20.8454 30.6516 21.073 30.4952 21.3005 30.1839 21.3582 29.9563 21.2017L-0.283264 0.412021C-0.510817 0.255578-0.568464-0.0557115-0.412021-0.283264-0.255578-0.510817 0.0557115-0.568464 0.283264-0.412021ZM31.7503 18.5923C32.9639 19.4266 33.2714 21.0868 32.437 22.3005 31.6027 23.5141 29.9425 23.8215 28.7288 22.9872 27.5152 22.1528 27.2078 20.4926 28.0421 19.279 28.8765 18.0654 30.5367 17.7579 31.7503 18.5923Z" fill="#FFC000" transform="matrix(1 0 0 -1 711.5 800.29)"/><text fill="#FFC000" font-family="Consolas,Consolas_MSFontService,sans-serif" font-style="italic" font-weight="400" font-size="11" transform="translate(682.046 804)">odom</text><path d="M0 0 0.000104987 15.0347" stroke="#00B050" stroke-width="2.66667" stroke-linecap="round" stroke-linejoin="bevel" stroke-miterlimit="10" fill="none" fill-rule="evenodd" transform="matrix(1 0 0 -1 820.5 854.535)"/><path d="M0 0 15.0364 0.000104987" stroke="#FF0000" stroke-width="2.66667" stroke-linecap="round" stroke-linejoin="round" stroke-miterlimit="10" fill="none" fill-rule="evenodd" transform="matrix(-1 -8.74228e-08 -8.74228e-08 1 835.536 854.5)"/><path d="M0.458535-0.199363 38.258 86.7394C38.3681 86.9927 38.2521 87.2872 37.9988 87.3973 37.7456 87.5074 37.451 87.3914 37.3409 87.1382L-0.458535 0.199363C-0.56864-0.0538789-0.452605-0.34843-0.199363-0.458535 0.0538789-0.56864 0.34843-0.452605 0.458535-0.199363ZM40.245 85.8755C40.8322 87.2261 40.2134 88.7971 38.8627 89.3843 37.5121 89.9715 35.9412 89.3527 35.354 88.0021 34.7667 86.6514 35.3856 85.0805 36.7362 84.4933 38.0868 83.906 39.6578 84.5249 40.245 85.8755Z" fill="#FFC000" transform="matrix(-1 -8.74228e-08 -8.74228e-08 1 858.299 767.5)"/><text fill="#FFC000" font-family="Consolas,Consolas_MSFontService,sans-serif" font-style="italic" font-weight="400" font-size="11" transform="translate(831.681 747)">base_link<tspan x="0" y="13">base_footprint</tspan><tspan x="0" y="26">…</tspan></text><path d="M971.622 836.577 968.009 817.594C967.957 817.322 968.135 817.06 968.407 817.009 968.678 816.957 968.94 817.135 968.991 817.407L972.604 836.39C972.656 836.661 972.478 836.923 972.207 836.974 971.935 837.026 971.674 836.848 971.622 836.577ZM965.88 817.999C965.605 816.552 966.555 815.156 968.001 814.88 969.448 814.605 970.844 815.555 971.12 817.001 971.395 818.448 970.445 819.844 968.999 820.12 967.552 820.395 966.156 819.445 965.88 817.999Z"/><text font-family="Consolas,Consolas_MSFontService,sans-serif" font-style="italic" font-weight="400" font-size="11" transform="translate(956.956 850)">world</text><path d="M711.592 773.009 741.832 778.679C742.103 778.729 742.282 778.991 742.231 779.262 742.18 779.534 741.919 779.712 741.648 779.661L711.408 773.992C711.136 773.941 710.958 773.679 711.009 773.408 711.06 773.136 711.321 772.958 711.592 773.009ZM742.231 776.549C743.679 776.82 744.632 778.214 744.361 779.661 744.089 781.109 742.696 782.062 741.248 781.791 739.801 781.52 738.847 780.126 739.119 778.679 739.39 777.231 740.784 776.278 742.231 776.549Z"/><text font-family="Consolas,Consolas_MSFontService,sans-serif" font-style="italic" font-weight="400" font-size="11" transform="translate(670.543 778)">offset</text><path d="M0.379628-0.325396 23.0593 26.1342C23.239 26.3439 23.2147 26.6595 23.0051 26.8393 22.7954 27.019 22.4798 26.9947 22.3001 26.785L-0.379628 0.325396C-0.559339 0.115733-0.535059-0.199917-0.325396-0.379628-0.115733-0.559339 0.199917-0.535059 0.379628-0.325396ZM24.7044 24.7242C25.6628 25.8424 25.5333 27.5259 24.4151 28.4843 23.2969 29.4428 21.6135 29.3133 20.655 28.1951 19.6965 27.0769 19.826 25.3934 20.9442 24.4349 22.0624 23.4765 23.7459 23.606 24.7044 24.7242Z" fill="#7030A0" transform="matrix(-1 -8.74228e-08 -8.74228e-08 1 787.18 767.5)"/><text fill="#7030A0" font-family="Consolas,Consolas_MSFontService,sans-serif" font-style="italic" font-weight="400" font-size="11" transform="translate(774.655 763)">odom</text><path d="M0.267835-0.422214 41.8473 25.9541C42.0804 26.102 42.1496 26.4109 42.0016 26.6441 41.8537 26.8773 41.5448 26.9464 41.3116 26.7985L-0.267835 0.422214C-0.501017 0.274292-0.570135-0.0346528-0.422214-0.267835-0.274292-0.501017 0.0346528-0.570135 0.267835-0.422214ZM43.0079 24.1245C44.2515 24.9134 44.6201 26.5611 43.8312 27.8047 43.0423 29.0484 41.3946 29.417 40.151 28.6281 38.9073 27.8392 38.5387 26.1915 39.3276 24.9478 40.1165 23.7042 41.7642 23.3356 43.0079 24.1245Z" fill="#7030A0" transform="matrix(1 0 0 -1 752.5 926.876)"/><text fill="#7030A0" font-family="Consolas,Consolas_MSFontService,sans-serif" font-style="italic" font-weight="400" font-size="11" transform="translate(695.603 925)">base_link<tspan x="0" y="13">base_footprint</tspan><tspan x="0" y="26">…</tspan></text><path d="M764.962 793.725 793.005 891.955C793.157 892.486 792.849 893.039 792.318 893.191 791.787 893.343 791.233 893.035 791.082 892.504L763.038 794.275C762.887 793.743 763.194 793.19 763.725 793.038 764.257 792.887 764.81 793.194 764.962 793.725ZM792.043 892.229 794.426 886.003 794.24 899.922 786.733 888.199Z" fill="#7030A0"/><path d="M0.462566-0.886585 167.247 86.1316C167.737 86.3871 167.927 86.9911 167.671 87.4808 167.416 87.9704 166.812 88.1602 166.322 87.9048L-0.462566 0.886585C-0.952213 0.631117-1.14205 0.0270813-0.886585-0.462566-0.631117-0.952213-0.0270813-1.14205 0.462566-0.886585ZM166.785 87.0182 163.907 81.0049 173.878 90.7187 160.206 88.0975Z" transform="matrix(-1 -8.74228e-08 -8.74228e-08 1 967.878 816)"/><path d="M0.190022-0.98178 226.693 42.8575C227.235 42.9625 227.59 43.4871 227.485 44.0293 227.38 44.5716 226.855 44.926 226.313 44.8211L-0.190022 0.98178C-0.732244 0.876834-1.08673 0.3522-0.98178-0.190022-0.876834-0.732244-0.3522-1.08673 0.190022-0.98178ZM226.503 43.8392 222.026 38.8986 234.357 45.3594 220.506 46.7529Z" fill="#0070C0" transform="matrix(-1 -8.74228e-08 -8.74228e-08 1 967.357 816)"/><path d="M707.697 850.04 734.157 861.38C734.41 861.489 734.528 861.783 734.419 862.037 734.31 862.291 734.017 862.408 733.763 862.299L707.303 850.96C707.049 850.851 706.932 850.557 707.04 850.303 707.149 850.049 707.443 849.932 707.697 850.04ZM735.01 859.389C736.364 859.969 736.991 861.537 736.411 862.89 735.831 864.244 734.263 864.871 732.909 864.291 731.556 863.711 730.928 862.143 731.509 860.789 732.089 859.436 733.656 858.809 735.01 859.389Z"/><text font-family="Consolas,Consolas_MSFontService,sans-serif" font-style="italic" font-weight="400" font-size="11" transform="translate(673.543 853)">start</text><path d="M0 0 0.000104987 15.0347" stroke="#00B050" stroke-width="2.66667" stroke-linecap="round" stroke-linejoin="bevel" stroke-miterlimit="10" fill="none" fill-rule="evenodd" transform="matrix(1 0 0 -1 582.5 816.535)"/><path d="M0 0 15.0364 0.000104987" stroke="#FF0000" stroke-width="2.66667" stroke-linecap="round" stroke-linejoin="round" stroke-miterlimit="10" fill="none" fill-rule="evenodd" transform="matrix(-1 -8.74228e-08 -8.74228e-08 1 597.536 816.5)"/><path d="M276 914.832 276 730.168C276 704.67 296.67 684 322.168 684L563 684 563 961 322.168 961C296.67 961 276 940.33 276 914.832Z" stroke="#D0CECE" stroke-width="2" stroke-linecap="round" stroke-linejoin="round" stroke-miterlimit="10" fill="none" fill-rule="evenodd"/><path d="M454 890 466.792 890 466.792 924.209 509 924.209 509 937 454 937Z" stroke="#D0CECE" stroke-width="2" stroke-linecap="round" stroke-linejoin="round" stroke-miterlimit="10" fill="none" fill-rule="evenodd"/><rect x="454" y="806" width="30" height="13" stroke="#D0CECE" stroke-width="2" stroke-linecap="round" stroke-linejoin="round" stroke-miterlimit="10" fill="none"/><rect x="454" y="722" width="60" height="13" stroke="#D0CECE" stroke-width="2" stroke-linecap="round" stroke-linejoin="round" stroke-miterlimit="10" fill="none"/><path d="M369 806 369 818.761 335.825 818.761 335.825 823 323 823 323 806Z" stroke="#D0CECE" stroke-width="2" stroke-linecap="round" stroke-linejoin="round" stroke-miterlimit="10" fill="none" fill-rule="evenodd"/><rect x="344" y="735" width="13" height="12" stroke="#D0CECE" stroke-width="2" stroke-linecap="round" stroke-linejoin="round" stroke-miterlimit="10" fill="none"/><path d="M324.522 730.078 335.634 723.862 341.795 734.877 330.683 741.093Z" stroke="#D0CECE" stroke-width="2" stroke-linecap="round" stroke-linejoin="round" stroke-miterlimit="10" fill="none" fill-rule="evenodd"/><path d="M326.011 743.896 338.63 742.205 340.306 754.715 327.686 756.405Z" stroke="#D0CECE" stroke-width="2" stroke-linecap="round" stroke-linejoin="round" stroke-miterlimit="10" fill="none" fill-rule="evenodd"/><path d="M344.455 750.784 357.12 752.101 355.815 764.654 343.151 763.338Z" stroke="#D0CECE" stroke-width="2" stroke-linecap="round" stroke-linejoin="round" stroke-miterlimit="10" fill="none" fill-rule="evenodd"/><path d="M321.17 883.623 333.496 880.433 336.658 892.651 324.332 895.841Z" stroke="#D0CECE" stroke-width="2" stroke-linecap="round" stroke-linejoin="round" stroke-miterlimit="10" fill="none" fill-rule="evenodd"/><path d="M331.632 898.106 344.313 899.255 343.173 911.825 330.493 910.675Z" stroke="#D0CECE" stroke-width="2" stroke-linecap="round" stroke-linejoin="round" stroke-miterlimit="10" fill="none" fill-rule="evenodd"/><path d="M347.22 895.364 359.836 893.647 361.538 906.152 348.922 907.87Z" stroke="#D0CECE" stroke-width="2" stroke-linecap="round" stroke-linejoin="round" stroke-miterlimit="10" fill="none" fill-rule="evenodd"/><path d="M349.356 876.505 361.848 878.973 359.402 891.354 346.911 888.887Z" stroke="#D0CECE" stroke-width="2" stroke-linecap="round" stroke-linejoin="round" stroke-miterlimit="10" fill="none" fill-rule="evenodd"/><path d="M340 862C340 857.582 343.358 854 347.5 854 351.642 854 355 857.582 355 862 355 866.418 351.642 870 347.5 870 343.358 870 340 866.418 340 862Z" stroke="#A6A6A6" stroke-width="2" stroke-linecap="round" stroke-linejoin="round" stroke-miterlimit="10" fill="none" fill-rule="evenodd"/><path d="M0 0 0.000104987 15.0347" stroke="#00B050" stroke-width="2.66667" stroke-linecap="round" stroke-linejoin="bevel" stroke-miterlimit="10" fill="none" fill-rule="evenodd" transform="matrix(0.899025 0.437897 0.437897 -0.899025 347.764 861.835)"/><path d="M0 0 15.0364 0.000104987" stroke="#FF0000" stroke-width="2.66667" stroke-linecap="round" stroke-linejoin="round" stroke-miterlimit="10" fill="none" fill-rule="evenodd" transform="matrix(-0.899025 -0.437897 -0.437897 0.899025 361.283 868.419)"/><path d="M0 0 0.000104987 15.0347" stroke="#00B050" stroke-width="2.66667" stroke-linecap="round" stroke-linejoin="bevel" stroke-miterlimit="10" fill="none" fill-rule="evenodd" transform="matrix(0.797768 -0.602965 -0.602965 -0.797768 355.158 778.51)"/><path d="M0 0 15.0364 0.000104987" stroke="#FF0000" stroke-width="2.66667" stroke-linecap="round" stroke-linejoin="round" stroke-miterlimit="10" fill="none" fill-rule="evenodd" transform="matrix(-0.797768 0.602965 0.602965 0.797768 367.153 769.444)"/><path d="M581.632 817.786 362.727 781.302C362.182 781.211 361.814 780.696 361.905 780.151 361.996 779.606 362.511 779.238 363.056 779.329L581.961 815.813C582.506 815.904 582.874 816.419 582.783 816.964 582.692 817.509 582.177 817.877 581.632 817.786ZM362.891 780.315 367.494 785.138 355 779 368.81 777.246Z" fill="#0070C0"/><path d="M0.190822-0.981625 226.527 43.017C227.07 43.1224 227.424 43.6473 227.318 44.1894 227.213 44.7316 226.688 45.0856 226.146 44.9802L-0.190822 0.981625C-0.732959 0.876236-1.08701 0.351314-0.981625-0.190822-0.876236-0.732959-0.351314-1.08701 0.190822-0.981625ZM226.337 43.9987 221.865 39.0545 234.19 45.5252 220.338 46.9074Z" transform="matrix(-1 -8.74228e-08 -8.74228e-08 1 582.19 816)"/><path d="M0.19348-0.461048 26.8199 10.7128C27.0746 10.8197 27.1944 11.1127 27.0875 11.3673 26.9806 11.622 26.6876 11.7418 26.433 11.6349L-0.19348 0.461048C-0.44811 0.354192-0.567904 0.0611499-0.461048-0.19348-0.354192-0.44811-0.0611499-0.567904 0.19348-0.461048ZM27.6583 8.71493C29.0164 9.28483 29.6553 10.8477 29.0854 12.2058 28.5155 13.5638 26.9526 14.2027 25.5946 13.6328 24.2365 13.0629 23.5976 11.5 24.1675 10.142 24.7374 8.78394 26.3003 8.14503 27.6583 8.71493Z" transform="matrix(1 0 0 -1 321.5 873.674)"/><text font-family="Consolas,Consolas_MSFontService,sans-serif" font-style="italic" font-weight="400" font-size="11" transform="translate(304.132 880)">gt</text><path d="M321.697 850.04 348.157 861.38C348.41 861.489 348.528 861.783 348.419 862.037 348.31 862.291 348.017 862.408 347.763 862.299L321.303 850.96C321.049 850.851 320.932 850.557 321.04 850.303 321.149 850.049 321.443 849.932 321.697 850.04ZM349.01 859.389C350.364 859.969 350.991 861.537 350.411 862.89 349.831 864.244 348.263 864.871 346.909 864.291 345.556 863.711 344.928 862.143 345.509 860.789 346.089 859.436 347.656 858.809 349.01 859.389Z"/><text font-family="Consolas,Consolas_MSFontService,sans-serif" font-style="italic" font-weight="400" font-size="11" transform="translate(287.822 853)">start</text><path d="M585.622 836.577 582.009 817.594C581.957 817.322 582.135 817.06 582.407 817.009 582.678 816.957 582.94 817.135 582.991 817.407L586.604 836.39C586.656 836.661 586.478 836.923 586.207 836.974 585.935 837.026 585.674 836.848 585.622 836.577ZM579.88 817.999C579.605 816.552 580.555 815.156 582.001 814.88 583.448 814.605 584.844 815.555 585.12 817.001 585.395 818.448 584.445 819.844 582.999 820.12 581.552 820.395 580.156 819.445 579.88 817.999Z"/><text font-family="Consolas,Consolas_MSFontService,sans-serif" font-style="italic" font-weight="400" font-size="11" transform="translate(571.234 850)">world</text><path d="M0.375413-0.33025 30.4483 33.8552C30.6307 34.0625 30.6104 34.3784 30.4031 34.5608 30.1958 34.7432 29.8798 34.723 29.6974 34.5157L-0.375413 0.33025C-0.557805 0.122915-0.537585-0.193021-0.33025-0.375413-0.122915-0.557805 0.193021-0.537585 0.375413-0.33025ZM32.0751 32.4241C33.0478 33.5299 32.94 35.2149 31.8342 36.1876 30.7284 37.1604 29.0434 37.0525 28.0707 35.9467 27.0979 34.841 27.2057 33.156 28.3115 32.1832 29.4173 31.2104 31.1023 31.3183 32.0751 32.4241Z" transform="matrix(-1 -8.74228e-08 -8.74228e-08 1 378.573 828.5)"/><text font-family="Consolas,Consolas_MSFontService,sans-serif" font-style="italic" font-weight="400" font-size="11" transform="translate(381.701 807)">base_link<tspan x="0" y="13">base_footprint</tspan><tspan x="0" y="26">…</tspan></text><path d="M0.995893-0.0905357 7.8315 75.1011C7.8815 75.6511 7.47616 76.1376 6.92614 76.1876 6.37613 76.2376 5.88971 75.8322 5.83971 75.2822L-0.995893 0.0905357C-1.04589-0.459481-0.640552-0.945892-0.0905357-0.995893 0.459481-1.04589 0.945892-0.640552 0.995893-0.0905357ZM6.83561 75.1917 10.3363 69.5181 7.55989 83.1588 2.36918 70.2424Z" transform="matrix(-1 -8.74228e-08 -8.74228e-08 1 355.56 779)"/><path d="M0.200409-0.458079 30.44 12.7717C30.693 12.8824 30.8083 13.1772 30.6977 13.4302 30.587 13.6832 30.2922 13.7986 30.0392 13.6879L-0.200409 0.458079C-0.453399 0.347396-0.568762 0.0525804-0.458079-0.200409-0.347396-0.453399-0.0525804-0.568762 0.200409-0.458079ZM31.3084 10.7867C32.6577 11.377 33.273 12.9494 32.6827 14.2987 32.0924 15.6479 30.52 16.2632 29.1707 15.6729 27.8214 15.0826 27.2062 13.5102 27.7965 12.161 28.3868 10.8117 29.9591 10.1964 31.3084 10.7867Z" fill="#FFD966" transform="matrix(1 0 0 -1 325.5 792.73)"/><text fill="#FFC000" font-family="Consolas,Consolas_MSFontService,sans-serif" font-style="italic" font-weight="400" font-size="11" transform="translate(296.325 797)">odom</text><path d="M0.16426-0.472248 43.6337 14.6475C43.8945 14.7383 44.0324 15.0232 43.9416 15.284 43.8509 15.5449 43.5659 15.6828 43.3051 15.592L-0.16426 0.472248C-0.425076 0.38153-0.562967 0.0965553-0.472248-0.16426-0.38153-0.425076-0.0965553-0.562967 0.16426-0.472248ZM44.3454 12.6011C45.7365 13.085 46.4719 14.6048 45.9881 15.9958 45.5042 17.3869 43.9844 18.1223 42.5933 17.6384 41.2023 17.1546 40.4669 15.6348 40.9507 14.2437 41.4346 12.8527 42.9544 12.1173 44.3454 12.6011Z" fill="#7030A0" transform="matrix(-1 -8.74228e-08 -8.74228e-08 1 398.969 763.5)"/><text fill="#7030A0" font-family="Consolas,Consolas_MSFontService,sans-serif" font-style="italic" font-weight="400" font-size="11" transform="translate(387.044 759)">odom</text><path d="M325.592 773.009 355.832 778.679C356.103 778.729 356.282 778.991 356.231 779.262 356.18 779.534 355.919 779.712 355.647 779.661L325.408 773.992C325.137 773.941 324.958 773.679 325.009 773.408 325.06 773.136 325.321 772.958 325.592 773.009ZM356.231 776.549C357.679 776.82 358.632 778.214 358.361 779.661 358.089 781.109 356.696 782.062 355.248 781.791 353.801 781.52 352.847 780.126 353.119 778.679 353.39 777.231 354.784 776.278 356.231 776.549Z"/><text font-family="Consolas,Consolas_MSFontService,sans-serif" font-style="italic" font-weight="400" font-size="11" transform="translate(284.822 778)">offset<tspan x="-5.17963" y="-103">Überarbeitetes System (t = 0):</tspan></text><path d="M8-0.999968 26.4596-0.999895C27.0119-0.999893 27.4596-0.552176 27.4596 0.000108955 27.4596 0.552394 27.0119 1.00011 26.4596 1.0001L7.99999 1.00003C7.44771 1.00003 7 0.552313 7 2.77747e-05 7-0.552257 7.44772-0.99997 8-0.999968ZM8 3.17425e-05 13.3333 4.00005 0 0 13.3333-3.99995Z" fill="#BFBFBF" transform="matrix(-1 -8.74228e-08 -8.74228e-08 1 559.46 1021)"/><text fill="#BFBFBF" font-family="Consolas,Consolas_MSFontService,sans-serif" font-weight="400" font-size="11" transform="translate(563.138 1023)">: Transformation mit <tspan x="122.5" y="0">amcl</tspan></text></g></svg>