<svg width="886" height="1051" xmlns="http://www.w3.org/2000/svg" xmlns:xlink="http://www.w3.org/1999/xlink" overflow="hidden"><defs><clipPath id="clip0"><path d="M219 138 1105 138 1105 1189 219 1189Z" fill-rule="evenodd" clip-rule="evenodd"/></clipPath></defs><g clip-path="url(#clip0)" transform="translate(-219 -138)"><text font-family="Consolas,Consolas_MSFontService,sans-serif" font-weight="700" font-size="13" transform="translate(685.003 417)">Für alle <tspan font-style="italic" font-weight="400" x="-7.33331" y="16">transform</tspan><tspan font-weight="400" x="58.6667" y="16">-</tspan><tspan font-weight="400" x="-25.6667" y="32">Elemente in </tspan><tspan font-weight="400" x="62.3333" y="32">msg</tspan></text><path d="M1-2.77747e-06 1.00009 31.1328C1.00009 31.6851 0.552374 32.1328 8.92479e-05 32.1328-0.552196 32.1328-0.999912 31.6851-0.999914 31.1328L-1 2.77747e-06C-1-0.552282-0.552288-0.999998-2.77747e-06-1 0.552282-1 0.999998-0.552288 1-2.77747e-06ZM4.00008 29.7995 0.000104987 37.7995-3.99992 29.7995Z" transform="matrix(1 0 0 -1 1036 513.799)"/><rect x="389" y="140" width="121" height="26" stroke="#000000" stroke-width="2" stroke-linecap="round" stroke-linejoin="round" stroke-miterlimit="10" fill="none"/><text font-family="Consolas,Consolas_MSFontService,sans-serif" font-weight="400" font-size="13" transform="translate(402.115 158)">Programmstart</text><rect x="348" y="189" width="204" height="45" stroke="#000000" stroke-width="2" stroke-linecap="round" stroke-linejoin="round" stroke-miterlimit="10" fill="none"/><text font-family="Consolas,Consolas_MSFontService,sans-serif" font-weight="400" font-size="13" transform="translate(358.115 208)">Targets<tspan x="51.3333" y="0">-</tspan><tspan x="58.6667" y="0">Liste deklarieren </tspan><tspan x="40.3333" y="16">und definieren</tspan></text><rect x="314" y="328" width="272" height="38" stroke="#000000" stroke-width="2" stroke-linecap="round" stroke-linejoin="round" stroke-miterlimit="10" fill="none"/><text font-family="Consolas,Consolas_MSFontService,sans-serif" font-weight="400" font-size="13" transform="translate(321.323 344)">Zustandsvariablen für Kopiervorgang <tspan x="25.6667" y="16">deklarieren und </tspan>false<tspan x="187" y="16">setzen</tspan></text><rect x="295" y="389" width="310" height="38" stroke="#000000" stroke-width="2" stroke-linecap="round" stroke-linejoin="round" stroke-miterlimit="10" fill="none"/><text font-family="Consolas,Consolas_MSFontService,sans-serif" font-weight="400" font-size="13" transform="translate(336.073 405)">Eingangs<tspan x="58.6667" y="0">-</tspan><tspan x="66" y="0">Bag</tspan>-<tspan x="95.3333" y="0">Objekt (</tspan>Inbag<tspan x="190.667" y="0">) aus </tspan><tspan x="-33" y="16">Eingangspfad  und </tspan><tspan x="99" y="16">Modusangabe</tspan><tspan font-style="italic" x="187" y="16">r</tspan><tspan x="201.667" y="16">erzeugen</tspan></text><rect x="329" y="449" width="242" height="87" stroke="#000000" stroke-width="2" stroke-linecap="round" stroke-linejoin="round" stroke-miterlimit="10" fill="none"/><text font-family="Consolas,Consolas_MSFontService,sans-serif" font-weight="400" font-size="13" transform="translate(361.74 466)">Message<tspan x="51.3333" y="0">-</tspan><tspan x="58.6667" y="0">Liste mit Tupeln </tspan><tspan x="-7.33331" y="16">(</tspan><tspan x="0" y="16">topic</tspan><tspan x="36.6667" y="16">, </tspan><tspan x="51.3333" y="16">msg</tspan><tspan x="80.6667" y="16">[= Nachricht], </tspan><tspan x="22" y="32">t [= Zeitstempel])</tspan><tspan x="-11" y="48">aus </tspan><tspan x="18.3333" y="48">Inbag</tspan><tspan x="62.3333" y="48">erzeugen (mittels </tspan><tspan x="-22" y="64">Inbag.read_messages</tspan>()<tspan x="132" y="64">-</tspan><tspan x="139.333" y="64">Methode)</tspan></text><path d="M246 592 424.551 592C425.103 592 425.551 592.448 425.551 593 425.551 593.552 425.103 594 424.551 594L246 594C245.448 594 245 593.552 245 593 245 592.448 245.448 592 246 592ZM423.217 589 431.217 593 423.217 597Z"/><path d="M451 536 451 567.56 449 567.56 449 536ZM454 566.226 450 574.226 446 566.226Z"/><path d="M431 593.5 450 575 469 593.5 450 612Z" stroke="#000000" stroke-width="2" stroke-linecap="round" stroke-linejoin="round" stroke-miterlimit="10" fill="none" fill-rule="evenodd"/><text font-family="Consolas,Consolas_MSFontService,sans-serif" font-weight="700" font-size="13" transform="translate(237.763 558)">Für alle <tspan font-style="italic" font-weight="400" x="66" y="0">(</tspan><tspan font-style="italic" font-weight="400" x="73.3333" y="0">topic</tspan><tspan font-style="italic" font-weight="400" x="110" y="0">, </tspan><tspan font-style="italic" font-weight="400" x="124.667" y="0">msg</tspan><tspan font-style="italic" font-weight="400" x="146.667" y="0">, t)</tspan><tspan font-weight="400" x="176" y="0">-</tspan><tspan font-weight="400" x="14.6667" y="16">Tupel der Message</tspan><tspan font-weight="400" x="139.333" y="16">-</tspan><tspan font-weight="400" x="146.667" y="16">Liste</tspan></text><path d="M423.831 577.921 450.29 593.041C450.61 593.224 450.721 593.631 450.539 593.951 450.356 594.27 449.949 594.381 449.629 594.199L423.169 579.079C422.85 578.896 422.739 578.489 422.921 578.169 423.104 577.85 423.511 577.739 423.831 577.921ZM451.283 591.305C452.561 592.035 453.006 593.664 452.275 594.943 451.544 596.222 449.915 596.666 448.637 595.935 447.358 595.204 446.914 593.576 447.644 592.297 448.375 591.018 450.004 590.574 451.283 591.305Z"/><path d="M249.5 578.5 423.378 578.5" stroke="#000000" stroke-width="1.33333" stroke-linecap="round" stroke-linejoin="round" stroke-miterlimit="10" fill="none" fill-rule="evenodd"/><path d="M6.77432e-07-1 148.311-0.9999C148.863-0.999899 149.311-0.552184 149.311 0.000101148 149.311 0.552386 148.863 1.0001 148.311 1.0001L-6.77432e-07 1C-0.552285 1-1 0.552284-1-6.77432e-07-1-0.552285-0.552284-1 6.77432e-07-1ZM146.978-3.9999 154.978 0.000104987 146.978 4.0001Z" transform="matrix(-1 -8.74228e-08 -8.74228e-08 1 623.978 291)"/><path d="M0.99999-0.00441058 1.05395 12.2287-0.946034 12.2375-0.99999 0.00441058ZM4.04804 10.8822 0.0833596 18.8997-3.95189 10.9175Z" transform="matrix(-1 -8.74228e-08 -8.74228e-08 1 450.083 310)"/><path d="M451 234 451 265.133 449 265.133 449 234ZM454 263.799 450 271.799 446 263.799Z"/><path d="M282.042 290.312 282.002 172.667 284.002 172.666 284.042 290.311ZM279.003 174.001 283 166 287.003 173.999Z"/><path d="M431 291 450 272 469 291 450 310Z" stroke="#000000" stroke-width="2" stroke-linecap="round" stroke-linejoin="round" stroke-miterlimit="10" fill="none" fill-rule="evenodd"/><text font-family="Consolas,Consolas_MSFontService,sans-serif" font-weight="700" font-size="13" transform="translate(477.96 260)">Für alle <tspan font-weight="400" x="66" y="0">Einträge</tspan><tspan font-weight="400" x="0" y="16">der Targets</tspan><tspan font-weight="400" x="80.6667" y="16">-</tspan><tspan font-weight="400" x="88" y="16">Liste</tspan></text><path d="M0.262613-0.612763 26.7222 10.7271C27.0607 10.8721 27.2174 11.264 27.0724 11.6025 26.9274 11.9409 26.5354 12.0976 26.197 11.9526L-0.262613 0.612763C-0.601033 0.467726-0.7578 0.075807-0.612763-0.262613-0.467726-0.601033-0.075807-0.7578 0.262613-0.612763ZM27.5101 8.88879C28.8638 9.46894 29.4908 11.0366 28.9107 12.3903 28.3305 13.744 26.7629 14.371 25.4092 13.7909 24.0555 13.2107 23.4284 11.6431 24.0086 10.2894 24.5887 8.93571 26.1564 8.30864 27.5101 8.88879Z" transform="matrix(-1 -8.74228e-08 -8.74228e-08 1 476.96 280.5)"/><path d="M476.5 280.5 608.798 280.5" stroke="#000000" stroke-width="1.33333" stroke-linecap="round" stroke-linejoin="round" stroke-miterlimit="10" fill="none" fill-rule="evenodd"/><path d="M451 166 451 181.586 449 181.586 449 166ZM454 180.253 450 188.253 446 180.253Z"/><path d="M451 365.996 451.059 382.436 449.059 382.444 449 366.004ZM454.054 381.092 450.083 389.107 446.055 381.121Z"/><path d="M451 427 451 442.586 449 442.586 449 427ZM454 441.253 450 449.253 446 441.253Z"/><path d="M760 866 760 1183.52" stroke="#000000" stroke-width="2" stroke-miterlimit="8" fill="none" fill-rule="evenodd"/><path d="M280 846 424.531 846C425.083 846 425.531 846.448 425.531 847 425.531 847.552 425.083 848 424.531 848L280 848C279.448 848 279 847.552 279 847 279 846.448 279.448 846 280 846ZM423.198 843 431.198 847 423.198 851Z"/><path d="M594 907 594 1055.31 592 1055.31 592 907ZM597 1053.98 593 1061.98 589 1053.98Z"/><path d="M451 792 451 820.816C451 821.368 450.552 821.816 450 821.816 449.448 821.816 449 821.368 449 820.816L449 792C449 791.448 449.448 791 450 791 450.552 791 451 791.448 451 792ZM454 819.483 450 827.483 446 819.483Z"/><path d="M435.073 797.282 464.406 797.282 464.406 812.282 435.073 812.282Z" fill="#FFFFFF" fill-rule="evenodd"/><text font-family="Consolas,Consolas_MSFontService,sans-serif" font-style="italic" font-weight="400" font-size="13" transform="translate(435.073 809)">true</text><path d="M451 612 451 628.013 449 628.013 449 612ZM454 626.68 450 634.68 446 626.68Z"/><path d="M246 593 246 702.618" stroke="#000000" stroke-width="2" stroke-linecap="round" stroke-linejoin="round" stroke-miterlimit="10" fill="none" fill-rule="evenodd"/><path d="M259.667 710 358.839 710C359.391 710 359.839 710.448 359.839 711 359.839 711.552 359.391 712 358.839 712L259.667 712C259.114 712 258.667 711.552 258.667 711 258.667 710.448 259.114 710 259.667 710ZM261 715 253 711 261 707Z"/><path d="M286.242 704.194 293.575 704.194 293.575 719.194 286.242 719.194Z" fill="#FFFFFF" fill-rule="evenodd"/><path d="M293.575 704.194 330.242 704.194 330.242 719.194 293.575 719.194Z" fill="#FFFFFF" fill-rule="evenodd"/><path d="M330.242 704.194 337.575 704.194 337.575 719.194 330.242 719.194Z" fill="#FFFFFF" fill-rule="evenodd"/><text font-family="Consolas,Consolas_MSFontService,sans-serif" font-style="italic" font-weight="400" font-size="13" transform="translate(286.242 716)"> <tspan x="7.33334" y="0">false</tspan><tspan fill="#FFFFFF" x="44" y="0">.</tspan></text><path d="M238 710.5C238 706.358 241.358 703 245.5 703 249.642 703 253 706.358 253 710.5 253 714.642 249.642 718 245.5 718 241.358 718 238 714.642 238 710.5Z" stroke="#000000" stroke-width="2" stroke-linecap="round" stroke-linejoin="round" stroke-miterlimit="10" fill="none" fill-rule="evenodd"/><path d="M574 888 593 869 612 888 593 907Z" stroke="#000000" stroke-width="2" stroke-linecap="round" stroke-linejoin="round" stroke-miterlimit="10" fill="none" fill-rule="evenodd"/><path d="M0.441081-0.499892 64.7002 56.1993C64.9763 56.4429 65.0026 56.8642 64.759 57.1403 64.5154 57.4164 64.0941 57.4427 63.818 57.1991L-0.441081 0.499892C-0.717164 0.25629-0.743494-0.164998-0.499892-0.441081-0.25629-0.717164 0.164998-0.743494 0.441081-0.499892ZM66.0234 54.6996C67.1278 55.6741 67.2331 57.3592 66.2587 58.4635 65.2843 59.5679 63.5991 59.6732 62.4948 58.6988 61.3904 57.7244 61.2851 56.0392 62.2595 54.9349 63.2339 53.8306 64.9191 53.7252 66.0234 54.6996Z" transform="matrix(1 0 0 -1 529.5 945.199)"/><path d="M306.5 945.5 529.654 945.5" stroke="#000000" stroke-width="1.33333" stroke-linecap="round" stroke-linejoin="round" stroke-miterlimit="10" fill="none" fill-rule="evenodd"/><path d="M431 847 450 828 469 847 450 866Z" stroke="#000000" stroke-width="2" stroke-linecap="round" stroke-linejoin="round" stroke-miterlimit="10" fill="none" fill-rule="evenodd"/><path d="M423.831 831.921 450.29 847.041C450.61 847.224 450.721 847.631 450.539 847.951 450.356 848.27 449.949 848.381 449.629 848.199L423.169 833.079C422.85 832.896 422.739 832.489 422.921 832.169 423.104 831.85 423.511 831.739 423.831 831.921ZM451.283 845.305C452.561 846.035 453.006 847.664 452.275 848.943 451.544 850.222 449.915 850.666 448.637 849.935 447.358 849.204 446.914 847.576 447.644 846.297 448.375 845.018 450.004 844.574 451.283 845.305Z"/><path d="M295.5 832.5 424.155 832.5" stroke="#000000" stroke-width="1.33333" stroke-linecap="round" stroke-linejoin="round" stroke-miterlimit="10" fill="none" fill-rule="evenodd"/><text font-family="Consolas,Consolas_MSFontService,sans-serif" font-weight="700" font-size="13" transform="translate(283.684 795)">Für alle <tspan font-style="italic" font-weight="400" x="66" y="0">transform</tspan><tspan font-weight="400" x="132" y="0">-</tspan><tspan font-weight="400" x="14.6667" y="16">Elemente in </tspan><tspan font-weight="400" x="102.667" y="16">msg</tspan><tspan font-weight="400" x="11" y="32">(</tspan><tspan font-style="italic" font-weight="400" x="18.3333" y="32">msg.transforms</tspan><tspan font-style="italic" font-weight="400" x="121" y="32">)</tspan></text><rect x="299" y="1062" width="359" height="57" stroke="#000000" stroke-width="2" stroke-linecap="round" stroke-linejoin="round" stroke-miterlimit="10" fill="none"/><text font-family="Consolas,Consolas_MSFontService,sans-serif" font-weight="400" font-size="13" transform="translate(357.089 1080)">Transformation zwischenspeichern, <tspan x="7.33334" y="16">jeweilige Frames umbenennen und </tspan><tspan x="-36.6667" y="32">zugehörige Abbruchbedingung auf </tspan><tspan font-style="italic" x="198" y="32">true</tspan><tspan x="234.667" y="32">setzen</tspan></text><path d="M578.711 965.916 608.044 965.916 608.044 980.916 578.711 980.916Z" fill="#FFFFFF" fill-rule="evenodd"/><text font-family="Consolas,Consolas_MSFontService,sans-serif" font-style="italic" font-weight="400" font-size="13" transform="translate(578.711 978)">true</text><path d="M442 1160.5C442 1156.36 445.358 1153 449.5 1153 453.642 1153 457 1156.36 457 1160.5 457 1164.64 453.642 1168 449.5 1168 445.358 1168 442 1164.64 442 1160.5Z" stroke="#000000" stroke-width="2" stroke-linecap="round" stroke-linejoin="round" stroke-miterlimit="10" fill="none" fill-rule="evenodd"/><path d="M451 1119 451 1146.35C451 1146.91 450.552 1147.35 450 1147.35 449.448 1147.35 449 1146.91 449 1146.35L449 1119C449 1118.45 449.448 1118 450 1118 450.552 1118 451 1118.45 451 1119ZM454 1145.02 450 1153.02 446 1145.02Z"/><path d="M677 888 677 1160.16" stroke="#000000" stroke-width="2" stroke-linecap="round" stroke-linejoin="round" stroke-miterlimit="10" fill="none" fill-rule="evenodd"/><path d="M4.78874e-07-1 212.571-0.999898C213.123-0.999898 213.571-0.552182 213.571 0.000102273 213.571 0.552387 213.123 1.0001 212.571 1.0001L-4.78874e-07 1C-0.552285 1-1 0.552284-1-4.78874e-07-1-0.552285-0.552284-1 4.78874e-07-1ZM211.237-3.9999 219.237 0.000104987 211.237 4.0001Z" transform="matrix(-1 -8.74228e-08 -8.74228e-08 1 676.237 1160)"/><path d="M0 0 162.538 0.000104987" stroke="#000000" stroke-width="2" stroke-linecap="round" stroke-linejoin="round" stroke-miterlimit="10" fill="none" fill-rule="evenodd" transform="matrix(-1 -8.74228e-08 -8.74228e-08 1 442.538 1160)"/><path d="M0 0 0.000104987 313.736" stroke="#000000" stroke-width="2" stroke-linecap="round" stroke-linejoin="round" stroke-miterlimit="10" fill="none" fill-rule="evenodd" transform="matrix(1 0 0 -1 280 1160.74)"/><path d="M469 846 734.49 846C735.042 846 735.49 846.448 735.49 847 735.49 847.552 735.042 848 734.49 848L469 848C468.448 848 468 847.552 468 847 468 846.448 468.448 846 469 846ZM733.156 843 741.156 847 733.156 851Z"/><path d="M741 847 760 828 779 847 760 866Z" stroke="#000000" stroke-width="2" stroke-linecap="round" stroke-linejoin="round" stroke-miterlimit="10" fill="none" fill-rule="evenodd"/><path d="M680.126 782.162 716.792 782.162 716.792 797.162 680.126 797.162Z" fill="#FFFFFF" fill-rule="evenodd"/><path d="M716.792 782.162 782.792 782.162 782.792 797.162 716.792 797.162Z" fill="#FFFFFF" fill-rule="evenodd"/><path d="M782.792 782.162 790.126 782.162 790.126 797.162 782.792 797.162Z" fill="#FFFFFF" fill-rule="evenodd"/><path d="M669.126 798.162 735.126 798.162 735.126 813.162 669.126 813.162Z" fill="#FFFFFF" fill-rule="evenodd"/><path d="M735.126 798.162 742.459 798.162 742.459 813.162 735.126 813.162Z" fill="#FFFFFF" fill-rule="evenodd"/><path d="M742.459 798.162 801.126 798.162 801.126 813.162 742.459 813.162Z" fill="#FFFFFF" fill-rule="evenodd"/><text font-family="Consolas,Consolas_MSFontService,sans-serif" font-weight="400" font-size="13" transform="translate(680.126 794)">Alle <tspan x="36.6667" y="0">Abbruchbe</tspan>-<tspan x="-11" y="16">dingungen</tspan> <tspan x="62.3333" y="16">erfüllt?</tspan></text><path d="M753.149 814.349 760.709 846.906C760.793 847.264 760.569 847.622 760.211 847.706 759.852 847.789 759.494 847.566 759.411 847.207L751.851 814.651C751.767 814.292 751.991 813.934 752.349 813.851 752.708 813.767 753.066 813.991 753.149 814.349ZM762.658 846.453C762.991 847.888 762.098 849.321 760.663 849.654 759.229 849.987 757.796 849.094 757.462 847.659 757.129 846.225 758.022 844.792 759.457 844.459 760.891 844.126 762.324 845.018 762.658 846.453Z"/><path d="M246 1183 760.073 1183" stroke="#000000" stroke-width="2" stroke-linecap="round" stroke-linejoin="round" stroke-miterlimit="10" fill="none" fill-rule="evenodd"/><path d="M1-2.2581e-07 1.0001 458.267-0.999897 458.267-1 2.2581e-07ZM4.0001 456.934 0.000104987 464.934-3.9999 456.934Z" transform="matrix(1 0 0 -1 246 1182.93)"/><path d="M6.66667-0.999963 18.8164-0.999895C19.3687-0.999892 19.8164-0.552174 19.8164 0.000110566 19.8164 0.552395 19.3687 1.00011 18.8164 1.0001L6.66666 1.00004C6.11438 1.00003 5.66666 0.552316 5.66667 3.16174e-05 5.66667-0.552253 6.11439-0.999966 6.66667-0.999963ZM7.99998 4.00004 0 0 8.00002-3.99996Z" transform="matrix(-1 -8.74228e-08 -8.74228e-08 1 812.816 1176)"/><path d="M741.362 884.83 778.029 884.83 778.029 899.83 741.362 899.83Z" fill="#FFFFFF" fill-rule="evenodd"/><text font-family="Consolas,Consolas_MSFontService,sans-serif" font-style="italic" font-weight="400" font-size="13" transform="translate(741.362 897)">false</text><path d="M469 593 597.518 593" stroke="#000000" stroke-width="2" stroke-linecap="round" stroke-miterlimit="8" fill="none" fill-rule="evenodd"/><path d="M598 593 598 692.172C598 692.724 597.552 693.172 597 693.172 596.448 693.172 596 692.724 596 692.172L596 593C596 592.448 596.448 592 597 592 597.552 592 598 592.448 598 593ZM601 690.839 597 698.839 593 690.839Z"/><path d="M504.981 833.191 508.648 833.191 508.648 848.191 504.981 848.191Z" fill="#FFFFFF" fill-rule="evenodd"/><path d="M508.648 833.191 647.981 833.191 647.981 848.191 508.648 848.191Z" fill="#FFFFFF" fill-rule="evenodd"/><path d="M647.981 833.191 655.314 833.191 655.314 848.191 647.981 848.191Z" fill="#FFFFFF" fill-rule="evenodd"/><path d="M521.481 849.191 616.814 849.191 616.814 864.191 521.481 864.191Z" fill="#FFFFFF" fill-rule="evenodd"/><path d="M616.815 849.191 638.815 849.191 638.815 864.191 616.815 864.191Z" fill="#FFFFFF" fill-rule="evenodd"/><text fill="#FFFFFF" font-family="Consolas,Consolas_MSFontService,sans-serif" font-weight="400" font-size="7" transform="translate(504.981 845)"> <tspan fill="#000000" font-size="13" x="3.66669" y="0">Keine weitere Trans</tspan><tspan fill="#000000" font-size="13" x="143" y="0">-</tspan><tspan fill="#000000" font-size="13" x="16.5" y="16">formation in </tspan><tspan fill="#000000" font-size="13" x="111.833" y="16">msg</tspan></text><rect x="231" y="140" width="105" height="26" stroke="#000000" stroke-width="2" stroke-linecap="round" stroke-linejoin="round" stroke-miterlimit="10" fill="none"/><text font-family="Consolas,Consolas_MSFontService,sans-serif" font-weight="400" font-size="13" transform="translate(239.464 158)">Programmende</text><path d="M0 0 147.418 0.000104987" stroke="#000000" stroke-width="2" stroke-linecap="round" stroke-linejoin="round" stroke-miterlimit="10" fill="none" fill-rule="evenodd" transform="matrix(-1 -8.74228e-08 -8.74228e-08 1 430.418 291)"/><path d="M311.354 266.626 414.021 266.626 414.021 281.626 311.354 281.626Z" fill="#FFFFFF" fill-rule="evenodd"/><path d="M304.021 282.626 311.354 282.626 311.354 297.626 304.021 297.626Z" fill="#FFFFFF" fill-rule="evenodd"/><path d="M311.354 282.626 406.688 282.626 406.688 297.626 311.354 297.626Z" fill="#FFFFFF" fill-rule="evenodd"/><path d="M406.688 282.626 414.021 282.626 414.021 297.626 406.688 297.626Z" fill="#FFFFFF" fill-rule="evenodd"/><path d="M326.021 298.626 392.021 298.626 392.021 313.626 326.021 313.626Z" fill="#FFFFFF" fill-rule="evenodd"/><text font-family="Consolas,Consolas_MSFontService,sans-serif" font-weight="400" font-size="13" transform="translate(311.354 279)">Kein weiterer <tspan fill="#FFFFFF" x="-7.33334" y="16">.</tspan><tspan x="0" y="16">Listeneintrag</tspan><tspan fill="#FFFFFF" x="95.3333" y="16">.</tspan><tspan x="14.6667" y="32">vorhanden</tspan></text><path d="M0 0 15.1198 0.000104987" stroke="#000000" stroke-width="2" stroke-miterlimit="8" fill="none" fill-rule="evenodd" transform="matrix(-1 -8.74228e-08 -8.74228e-08 1 794.12 847)"/><path d="M794 847 794 1175.86" stroke="#000000" stroke-width="2" stroke-linecap="round" stroke-miterlimit="8" fill="none" fill-rule="evenodd"/><path d="M505.002 553.902 541.669 553.902 541.669 568.902 505.002 568.902Z" fill="#FFFFFF" fill-rule="evenodd"/><path d="M490.335 569.902 556.335 569.902 556.335 584.902 490.335 584.902Z" fill="#FFFFFF" fill-rule="evenodd"/><path d="M483.002 585.902 490.335 585.902 490.335 600.902 483.002 600.902Z" fill="#FFFFFF" fill-rule="evenodd"/><path d="M490.335 585.902 549.002 585.902 549.002 600.902 490.335 600.902Z" fill="#FFFFFF" fill-rule="evenodd"/><path d="M549.002 585.902 556.335 585.902 556.335 600.902 549.002 600.902Z" fill="#FFFFFF" fill-rule="evenodd"/><path d="M490.335 601.902 541.669 601.902 541.669 616.902 490.335 616.902Z" fill="#FFFFFF" fill-rule="evenodd"/><path d="M541.669 601.902 549.002 601.902 549.002 616.902 541.669 616.902Z" fill="#FFFFFF" fill-rule="evenodd"/><path d="M501.335 617.902 538.002 617.902 538.002 632.902 501.335 632.902Z" fill="#FFFFFF" fill-rule="evenodd"/><text font-family="Consolas,Consolas_MSFontService,sans-serif" font-weight="400" font-size="13" transform="translate(505.002 566)">Kein <tspan x="-14.6667" y="16">weiteres </tspan><tspan fill="#FFFFFF" x="-22" y="32">.</tspan><tspan x="-14.6667" y="32">Tupel in</tspan><tspan fill="#FFFFFF" x="44" y="32">.</tspan><tspan x="-14.6667" y="48">Message</tspan><tspan x="36.6667" y="48">-</tspan><tspan x="-3.66666" y="64">Liste</tspan></text><path d="M934 1172 945.256 1172" stroke="#000000" stroke-width="2" stroke-linecap="round" stroke-miterlimit="8" fill="none" fill-rule="evenodd"/><rect x="824" y="1100" width="242" height="45" stroke="#000000" stroke-width="2" stroke-linecap="round" stroke-linejoin="round" stroke-miterlimit="10" fill="none"/><text font-family="Consolas,Consolas_MSFontService,sans-serif" font-weight="400" font-size="13" transform="translate(849.579 1120)">Transformer<tspan x="80.6667" y="0">-</tspan><tspan x="88" y="0">Objekt aus </tspan><tspan x="168.667" y="0">tf</tspan><tspan x="183.333" y="0">-</tspan><tspan x="18.3334" y="16">Bibliothek generieren</tspan></text><path d="M946 1151.67 946 1171.46C946 1172.01 945.552 1172.46 945 1172.46 944.448 1172.46 944 1172.01 944 1171.46L944 1151.67C944 1151.11 944.448 1150.67 945 1150.67 945.552 1150.67 946 1151.11 946 1151.67ZM941 1153 945 1145 949 1153Z"/><rect x="824" y="1032" width="242" height="45" stroke="#000000" stroke-width="2" stroke-linecap="round" stroke-linejoin="round" stroke-miterlimit="10" fill="none"/><text font-family="Consolas,Consolas_MSFontService,sans-serif" font-weight="400" font-size="13" transform="translate(834.913 1052)">Zwischengespeicherte Transfor<tspan x="212.667" y="0">-</tspan><tspan x="3.66663" y="16">mationen</tspan><tspan x="69.6666" y="16">Transformer zuordnen</tspan></text><path d="M946 1083.67 946 1099.68C946 1100.23 945.552 1100.68 945 1100.68 944.448 1100.68 944 1100.23 944 1099.68L944 1083.67C944 1083.11 944.448 1082.67 945 1082.67 945.552 1082.67 946 1083.11 946 1083.67ZM941 1085 945 1077 949 1085Z"/><rect x="824" y="937" width="242" height="72" stroke="#000000" stroke-width="2" stroke-linecap="round" stroke-linejoin="round" stroke-miterlimit="10" fill="none"/><text font-family="Consolas,Consolas_MSFontService,sans-serif" font-weight="400" font-size="13" transform="translate(849.579 954)">Transformations<tspan x="110" y="0">-</tspan><tspan x="117.333" y="0">Objekte in </tspan><tspan x="-11" y="16">Matrizen</tspan><tspan x="47.6667" y="16">-</tspan><tspan x="55" y="16">Objekte konvertieren </tspan><tspan x="7.33337" y="32">und Matrizen</tspan><tspan x="95.3334" y="32">-</tspan><tspan x="102.667" y="32">Objekte für </tspan><tspan x="0" y="48">Inverse Matrizen bestimmen</tspan></text><path d="M946 1015.67 946 1031.68C946 1032.23 945.552 1032.68 945 1032.68 944.448 1032.68 944 1032.23 944 1031.68L944 1015.67C944 1015.11 944.448 1014.67 945 1014.67 945.552 1014.67 946 1015.11 946 1015.67ZM941 1017 945 1009 949 1017Z"/><rect x="824" y="828" width="242" height="87" stroke="#000000" stroke-width="2" stroke-linecap="round" stroke-linejoin="round" stroke-miterlimit="10" fill="none"/><text font-family="Consolas,Consolas_MSFontService,sans-serif" font-weight="400" font-size="13" transform="translate(871.579 844)">Offset-<tspan x="51.3334" y="0">Matrix</tspan>-<tspan x="102.667" y="0">Objekt </tspan><tspan x="-22" y="16">deklarieren, berechnen, in </tspan><tspan x="-7.33331" y="32">Transformations</tspan><tspan x="102.667" y="32">-</tspan><tspan x="110" y="32">Objekt </tspan><tspan x="-25.6666" y="48">konvertieren und mit Frame</tspan><tspan x="165" y="48">-</tspan><tspan x="25.6667" y="64">ID‘s</tspan><tspan x="62.3334" y="64">versehen</tspan></text><path d="M946 921.667 946 937.68C946 938.232 945.552 938.68 945 938.68 944.448 938.68 944 938.232 944 937.68L944 921.667C944 921.114 944.448 920.667 945 920.667 945.552 920.667 946 921.114 946 921.667ZM941 923 945 915 949 923Z"/><rect x="824" y="760" width="242" height="45" stroke="#000000" stroke-width="2" stroke-linecap="round" stroke-linejoin="round" stroke-miterlimit="10" fill="none"/><text font-family="Consolas,Consolas_MSFontService,sans-serif" font-weight="400" font-size="13" transform="translate(845.913 779)">Gespeicherte Transformation <tspan x="0" y="16">mit Start</tspan>-<tspan x="73.3333" y="16">Frame</tspan><tspan x="110" y="16">-</tspan><tspan x="117.333" y="16">ID versehen</tspan></text><path d="M946 811.667 946 827.68C946 828.232 945.552 828.68 945 828.68 944.448 828.68 944 828.232 944 827.68L944 811.667C944 811.114 944.448 810.667 945 810.667 945.552 810.667 946 811.114 946 811.667ZM941 813 945 805 949 813Z"/><path d="M1-2.77747e-06 1.00009 31.1328C1.00009 31.6851 0.552374 32.1328 8.92479e-05 32.1328-0.552196 32.1328-0.999912 31.6851-0.999914 31.1328L-1 2.77747e-06C-1-0.552282-0.552288-0.999998-2.77747e-06-1 0.552282-1 0.999998-0.552288 1-2.77747e-06ZM4.00008 29.7995 0.000104987 37.7995-3.99992 29.7995Z" transform="matrix(1 0 0 -1 873 627.799)"/><path d="M1-3.96781e-06 1.00008 19.793-0.999921 19.793-1 3.96781e-06ZM4.00007 18.4596 0.000104987 26.4596-3.99993 18.4596Z" transform="matrix(1 0 0 -1 873 691.46)"/><path d="M854 646 873 627 892 646 873 665Z" stroke="#000000" stroke-width="2" stroke-linecap="round" stroke-linejoin="round" stroke-miterlimit="10" fill="none" fill-rule="evenodd"/><text font-family="Consolas,Consolas_MSFontService,sans-serif" font-weight="700" font-size="13" transform="translate(653.557 596)">Für alle <tspan font-style="italic" font-weight="400" x="66" y="0">(</tspan><tspan font-style="italic" font-weight="400" x="73.3334" y="0">topic</tspan><tspan font-style="italic" font-weight="400" x="110" y="0">, </tspan><tspan font-style="italic" font-weight="400" x="124.667" y="0">msg</tspan><tspan font-style="italic" font-weight="400" x="146.667" y="0">, t)</tspan><tspan font-weight="400" x="176" y="0">-</tspan><tspan font-weight="400" x="14.6667" y="16">Tupel der Message</tspan><tspan font-weight="400" x="139.333" y="16">-</tspan><tspan font-weight="400" x="146.667" y="16">Liste</tspan></text><path d="M839.943 616.002 873.963 646.241C874.238 646.486 874.262 646.907 874.018 647.183 873.773 647.458 873.352 647.483 873.077 647.238L839.057 616.998C838.782 616.754 838.757 616.332 839.002 616.057 839.246 615.782 839.668 615.757 839.943 616.002ZM875.291 644.747C876.392 645.725 876.491 647.411 875.513 648.511 874.534 649.612 872.849 649.711 871.748 648.733 870.647 647.754 870.548 646.069 871.526 644.968 872.505 643.867 874.19 643.768 875.291 644.747Z"/><path d="M665.5 616.5 839.378 616.5" stroke="#000000" stroke-width="1.33333" stroke-linecap="round" stroke-linejoin="round" stroke-miterlimit="10" fill="none" fill-rule="evenodd"/><path d="M7.71519e-07-1 129.411-0.9999 129.411 1.0001-7.71519e-07 1ZM128.078-3.9999 136.078 0.000104987 128.078 4.0001Z" transform="matrix(-1 -8.74228e-08 -8.74228e-08 1 1028.08 646)"/><path d="M624 646 854.577 646" stroke="#000000" stroke-width="2" stroke-linecap="round" stroke-miterlimit="8" fill="none" fill-rule="evenodd"/><path d="M673.245 632.854 680.579 632.854 680.579 647.854 673.245 647.854Z" fill="#FFFFFF" fill-rule="evenodd"/><path d="M680.579 632.854 783.245 632.854 783.245 647.854 680.579 647.854Z" fill="#FFFFFF" fill-rule="evenodd"/><path d="M783.245 632.854 790.579 632.854 790.579 647.854 783.245 647.854Z" fill="#FFFFFF" fill-rule="evenodd"/><path d="M790.579 632.854 834.579 632.854 834.579 647.854 790.579 647.854Z" fill="#FFFFFF" fill-rule="evenodd"/><path d="M687.912 648.854 702.579 648.854 702.579 663.854 687.912 663.854Z" fill="#FFFFFF" fill-rule="evenodd"/><path d="M702.579 648.854 709.912 648.854 709.912 663.854 702.579 663.854Z" fill="#FFFFFF" fill-rule="evenodd"/><path d="M717.245 648.854 768.579 648.854 768.579 663.854 717.245 663.854Z" fill="#FFFFFF" fill-rule="evenodd"/><path d="M768.579 648.854 775.912 648.854 775.912 663.854 768.579 663.854Z" fill="#FFFFFF" fill-rule="evenodd"/><path d="M775.912 648.854 812.579 648.854 812.579 663.854 775.912 663.854Z" fill="#FFFFFF" fill-rule="evenodd"/><text font-family="Consolas,Consolas_MSFontService,sans-serif" font-weight="400" font-size="13" transform="translate(673.245 645)"> <tspan x="7.33331" y="0">Kein weiteres </tspan><tspan fill="#FFFFFF" x="110" y="0">.</tspan><tspan x="117.333" y="0">Tupel </tspan><tspan x="14.6666" y="16">in</tspan><tspan fill="#FFFFFF" x="29.3333" y="16">.</tspan><tspan x="44" y="16">Message</tspan><tspan x="95.3333" y="16">-</tspan><tspan x="102.667" y="16">Liste</tspan></text><path d="M624 291 624 544.256" stroke="#000000" stroke-width="2" stroke-linecap="round" stroke-miterlimit="8" fill="none" fill-rule="evenodd"/><rect x="813" y="1160" width="121" height="23" stroke="#000000" stroke-width="2" stroke-linecap="round" stroke-linejoin="round" stroke-miterlimit="10" fill="none"/><text font-family="Consolas,Consolas_MSFontService,sans-serif" font-weight="400" font-size="13" transform="translate(821.719 1177)">Startzeit := t</text><rect x="578" y="699" width="121" height="72" stroke="#000000" stroke-width="2" stroke-linecap="round" stroke-linejoin="round" stroke-miterlimit="10" fill="none"/><text font-family="Consolas,Consolas_MSFontService,sans-serif" font-weight="400" font-size="13" transform="translate(598.404 716)">Vorzeitiges <tspan x="-7.33331" y="16">Programmende:</tspan><tspan x="0" y="32">Fehlerhafte </tspan><tspan x="7.33331" y="48">Bag</tspan>-<tspan x="36.6667" y="48">Datei</tspan></text><path d="M779.048 856.297 808.381 856.297 808.381 871.297 779.048 871.297Z" fill="#FFFFFF" fill-rule="evenodd"/><text font-family="Consolas,Consolas_MSFontService,sans-serif" font-style="italic" font-weight="400" font-size="13" transform="translate(779.048 868)">true</text><path d="M684.5 814.5 786.559 814.5" stroke="#000000" stroke-width="1.33333" stroke-linecap="round" stroke-linejoin="round" stroke-miterlimit="10" fill="none" fill-rule="evenodd"/><path d="M828 552 873 514 918 552 873 590Z" stroke="#000000" stroke-width="2" stroke-miterlimit="8" fill="none" fill-rule="evenodd"/><text font-family="Consolas,Consolas_MSFontService,sans-serif" font-weight="400" font-size="13" transform="translate(862.094 541)">t &gt; <tspan x="-3.66669" y="16">End</tspan>-<tspan x="-3.66669" y="32">zeit</tspan></text><path d="M1037 590 1037 632.473C1037 633.025 1036.55 633.473 1036 633.473 1035.45 633.473 1035 633.025 1035 632.473L1035 590C1035 589.448 1035.45 589 1036 589 1036.55 589 1037 589.448 1037 590ZM1040 631.139 1036 639.139 1032 631.139Z"/><path d="M918 551 983.152 551C983.705 551 984.152 551.448 984.152 552 984.152 552.552 983.705 553 983.152 553L918 553C917.448 553 917 552.552 917 552 917 551.448 917.448 551 918 551ZM981.819 548 989.819 552 981.819 556Z"/><path d="M5.34129e-07-1 189.891-0.999899C190.443-0.999898 190.891-0.552183 190.891 0.00010196 190.891 0.552387 190.443 1.0001 189.891 1.0001L-5.34129e-07 1C-0.552285 1-1 0.552284-1-5.34129e-07-1-0.552285-0.552284-1 5.34129e-07-1ZM188.557-3.9999 196.557 0.000104987 188.557 4.0001Z" transform="matrix(-1 -8.74228e-08 -8.74228e-08 1 827.557 552)"/><path d="M773.605 544.327 780.938 544.327 780.938 559.327 773.605 559.327Z" fill="#FFFFFF" fill-rule="evenodd"/><path d="M780.938 544.327 810.271 544.327 810.271 559.327 780.938 559.327Z" fill="#FFFFFF" fill-rule="evenodd"/><path d="M810.271 544.327 817.605 544.327 817.605 559.327 810.271 559.327Z" fill="#FFFFFF" fill-rule="evenodd"/><text font-family="Consolas,Consolas_MSFontService,sans-serif" font-style="italic" font-weight="400" font-size="13" transform="translate(773.605 556)"> <tspan x="7.33331" y="0">true</tspan><tspan fill="#FFFFFF" x="36.6666" y="0">.</tspan></text><path d="M990 552 1035.5 514 1081 552 1035.5 590Z" stroke="#000000" stroke-width="2" stroke-miterlimit="8" fill="none" fill-rule="evenodd"/><text font-family="Consolas,Consolas_MSFontService,sans-serif" font-weight="400" font-size="13" transform="translate(1020.96 541)">t &gt;= <tspan x="-7.33337" y="16">Start</tspan><tspan x="29.3334" y="16">-</tspan><tspan x="0" y="32">zeit</tspan></text><path d="M616 551.5C616 547.358 619.358 544 623.5 544 627.642 544 631 547.358 631 551.5 631 555.642 627.642 559 623.5 559 619.358 559 616 555.642 616 551.5Z" stroke="#000000" stroke-width="2" stroke-linecap="round" stroke-linejoin="round" stroke-miterlimit="10" fill="none" fill-rule="evenodd"/><path d="M1-1.2076e-06 1.0001 80.2721C1.0001 80.8244 0.552383 81.2721 9.81438e-05 81.2721-0.552187 81.2721-0.999902 80.8244-0.999903 80.2721L-1 1.2076e-06C-1-0.552284-0.552286-0.999999-1.2076e-06-1 0.552284-1 0.999999-0.552286 1-1.2076e-06ZM4.00009 78.9388 0.000104987 86.9388-3.9999 78.9388Z" transform="matrix(1 0 0 -1 624 645.939)"/><path d="M1008.07 605.915 1015.41 605.915 1015.41 620.915 1008.07 620.915Z" fill="#FFFFFF" fill-rule="evenodd"/><path d="M1015.41 605.915 1052.07 605.915 1052.07 620.915 1015.41 620.915Z" fill="#FFFFFF" fill-rule="evenodd"/><path d="M1052.07 605.915 1059.41 605.915 1059.41 620.915 1052.07 620.915Z" fill="#FFFFFF" fill-rule="evenodd"/><text font-family="Consolas,Consolas_MSFontService,sans-serif" font-style="italic" font-weight="400" font-size="13" transform="translate(1008.07 618)"> <tspan x="7.33337" y="0">false</tspan><tspan fill="#FFFFFF" x="44" y="0">.</tspan></text><path d="M924.916 545.436 932.249 545.436 932.249 560.436 924.916 560.436Z" fill="#FFFFFF" fill-rule="evenodd"/><path d="M932.249 545.436 968.916 545.436 968.916 560.436 932.249 560.436Z" fill="#FFFFFF" fill-rule="evenodd"/><path d="M968.916 545.436 976.249 545.436 976.249 560.436 968.916 560.436Z" fill="#FFFFFF" fill-rule="evenodd"/><text font-family="Consolas,Consolas_MSFontService,sans-serif" font-style="italic" font-weight="400" font-size="13" transform="translate(924.916 557)"> <tspan x="7.33331" y="0">false</tspan><tspan fill="#FFFFFF" x="44" y="0">.</tspan></text><path d="M1011.74 491.408 1019.07 491.408 1019.07 506.408 1011.74 506.408Z" fill="#FFFFFF" fill-rule="evenodd"/><path d="M1019.07 491.408 1048.41 491.408 1048.41 506.408 1019.07 506.408Z" fill="#FFFFFF" fill-rule="evenodd"/><path d="M1048.41 491.408 1055.74 491.408 1055.74 506.408 1048.41 506.408Z" fill="#FFFFFF" fill-rule="evenodd"/><text font-family="Consolas,Consolas_MSFontService,sans-serif" font-style="italic" font-weight="400" font-size="13" transform="translate(1011.74 503)"> <tspan x="7.33331" y="0">true</tspan><tspan fill="#FFFFFF" x="36.6667" y="0">.</tspan></text><rect x="748" y="692" width="318" height="45" stroke="#000000" stroke-width="2" stroke-linecap="round" stroke-linejoin="round" stroke-miterlimit="10" fill="none"/><text font-family="Consolas,Consolas_MSFontService,sans-serif" font-weight="400" font-size="13" transform="translate(789.78 711)">Ausgangs<tspan x="58.6667" y="0">-</tspan><tspan x="66" y="0">Bag</tspan>-<tspan x="95.3333" y="0">Objekt (</tspan><tspan x="154" y="0">Outbag</tspan>) aus <tspan x="-25.6667" y="16">Ausgangspfad und </tspan>Modusangabe<tspan font-style="italic" x="187" y="16">w</tspan><tspan x="201.667" y="16">erzeugen</tspan></text><path d="M946 743.667 946 759.68C946 760.232 945.552 760.68 945 760.68 944.448 760.68 944 760.232 944 759.68L944 743.667C944 743.114 944.448 742.667 945 742.667 945.552 742.667 946 743.114 946 743.667ZM941 745 945 737 949 745Z"/><path d="M990 438.5 1035.5 401 1081 438.5 1035.5 476Z" stroke="#000000" stroke-width="2" stroke-miterlimit="8" fill="none" fill-rule="evenodd"/><text font-family="Consolas,Consolas_MSFontService,sans-serif" font-weight="400" font-size="13" transform="translate(1017.3 427)">topic<tspan x="11.0001" y="16">== </tspan><tspan x="-3.66669" y="32">/</tspan><tspan x="3.66669" y="32">scan</tspan><tspan x="33.0001" y="32">?</tspan></text><path d="M1.38873e-06-1 68.9323-0.999904C69.4846-0.999904 69.9323-0.552188 69.9323 9.71174e-05 69.9323 0.552382 69.4846 1.0001 68.9323 1.0001L-1.38873e-06 1C-0.552286 0.999999-1 0.552283-1-1.38873e-06-0.999999-0.552286-0.552283-1 1.38873e-06-1ZM67.599-3.99991 75.5989 0.000104987 67.5989 4.00009Z" transform="matrix(-1 -8.74228e-08 -8.74228e-08 1 925.599 491)"/><path d="M760 491.5 805 454 850 491.5 805 529Z" stroke="#000000" stroke-width="2" stroke-miterlimit="8" fill="none" fill-rule="evenodd"/><text font-family="Consolas,Consolas_MSFontService,sans-serif" font-weight="400" font-size="13" transform="translate(786.721 480)">topic<tspan x="11" y="16">== </tspan><tspan x="3.66669" y="32">/</tspan><tspan x="11" y="32">tf</tspan><tspan x="25.6667" y="32">?</tspan></text><path d="M1-2.77747e-06 1.00009 31.1328C1.00009 31.6851 0.552374 32.1328 8.92479e-05 32.1328-0.552196 32.1328-0.999912 31.6851-0.999914 31.1328L-1 2.77747e-06C-1-0.552282-0.552288-0.999998-2.77747e-06-1 0.552282-1 0.999998-0.552288 1-2.77747e-06ZM4.00008 29.7995 0.000104987 37.7995-3.99992 29.7995Z" transform="matrix(1 0 0 -1 1036 400.799)"/><path d="M1011.74 378.009 1019.07 378.009 1019.07 393.009 1011.74 393.009Z" fill="#FFFFFF" fill-rule="evenodd"/><path d="M1019.07 378.009 1048.41 378.009 1048.41 393.009 1019.07 393.009Z" fill="#FFFFFF" fill-rule="evenodd"/><path d="M1048.41 378.009 1055.74 378.009 1055.74 393.009 1048.41 393.009Z" fill="#FFFFFF" fill-rule="evenodd"/><text font-family="Consolas,Consolas_MSFontService,sans-serif" font-style="italic" font-weight="400" font-size="13" transform="translate(1011.74 390)"> <tspan x="7.33331" y="0">true</tspan><tspan fill="#FFFFFF" x="36.6667" y="0">.</tspan></text><path d="M1-2.31456e-06 1.00009 38.6927C1.00009 39.245 0.552377 39.6927 9.1871e-05 39.6927-0.552193 39.6927-0.999909 39.245-0.99991 38.6927L-1 2.31456e-06C-1-0.552282-0.552287-0.999999-2.31456e-06-1 0.552282-1 0.999999-0.552287 1-2.31456e-06ZM4.00009 37.3594 0.000104987 45.3594-3.99991 37.3594Z" transform="matrix(1 0 0 -1 805 453.359)"/><path d="M783.055 427.148 790.388 427.148 790.388 442.148 783.055 442.148Z" fill="#FFFFFF" fill-rule="evenodd"/><path d="M790.388 427.148 819.721 427.148 819.721 442.148 790.388 442.148Z" fill="#FFFFFF" fill-rule="evenodd"/><path d="M819.721 427.148 827.055 427.148 827.055 442.148 819.721 442.148Z" fill="#FFFFFF" fill-rule="evenodd"/><text font-family="Consolas,Consolas_MSFontService,sans-serif" font-style="italic" font-weight="400" font-size="13" transform="translate(783.055 439)"> <tspan x="7.33337" y="0">true</tspan><tspan fill="#FFFFFF" x="36.6667" y="0">.</tspan></text><path d="M0 0 113.398 0.000104987" stroke="#000000" stroke-width="2" stroke-linecap="round" stroke-linejoin="round" stroke-miterlimit="10" fill="none" fill-rule="evenodd" transform="matrix(-1 -8.74228e-08 -8.74228e-08 1 759.398 491)"/><path d="M0 0 0.000104987 332.635" stroke="#000000" stroke-width="2" stroke-linecap="round" stroke-linejoin="round" stroke-miterlimit="10" fill="none" fill-rule="evenodd" transform="matrix(1 0 0 -1 646 491.635)"/><path d="M1103.78 646.613 1100 159" stroke="#000000" stroke-width="2" stroke-linecap="round" stroke-linejoin="round" stroke-miterlimit="10" fill="none" fill-rule="evenodd"/><path d="M1.73592e-06-1 53.8125-0.999907 53.8125 1.00009-1.73592e-06 1ZM52.4792-3.99991 60.4792 0.000104987 52.4792 4.00009Z" transform="matrix(-1 -8.74228e-08 -8.74228e-08 1 1103.48 646)"/><path d="M1028 646.5C1028 642.358 1031.36 639 1035.5 639 1039.64 639 1043 642.358 1043 646.5 1043 650.642 1039.64 654 1035.5 654 1031.36 654 1028 650.642 1028 646.5Z" stroke="#000000" stroke-width="2" stroke-linecap="round" stroke-linejoin="round" stroke-miterlimit="10" fill="none" fill-rule="evenodd"/><rect x="907" y="189" width="170" height="163" stroke="#000000" stroke-width="2" stroke-linecap="round" stroke-linejoin="round" stroke-miterlimit="10" fill="none"/><text font-family="Consolas,Consolas_MSFontService,sans-serif" font-weight="400" font-size="13" transform="translate(940.829 211)">Scan<tspan x="29.3333" y="0">-</tspan><tspan x="36.6666" y="0">Nachricht </tspan><tspan x="11" y="16">doppelt mit </tspan><tspan x="-11" y="32">unterschiedlichen </tspan><tspan x="-25.6667" y="48">namespaces</tspan><tspan x="55" y="48">und Zeit t </tspan><tspan x="-22" y="64">in </tspan>Outbag<tspan x="51.3333" y="64">schreiben:</tspan><tspan x="11" y="80">Frame</tspan><tspan x="47.6666" y="80">-</tspan><tspan x="55" y="80">ID 1: </tspan><tspan x="14.6666" y="96">laser_link</tspan><tspan x="11" y="112">Frame</tspan><tspan x="47.6666" y="112">-</tspan><tspan x="55" y="112">ID 2:</tspan><tspan x="3.66663" y="128">gt_laser_link</tspan></text><path d="M0 0 64.2591 0.000104987" stroke="#000000" stroke-width="2" stroke-linecap="round" stroke-linejoin="round" stroke-miterlimit="10" fill="none" fill-rule="evenodd" transform="matrix(-1 -8.74228e-08 -8.74228e-08 1 990.259 438)"/><path d="M926 438 926 490.919" stroke="#000000" stroke-width="2" stroke-linecap="round" stroke-linejoin="round" stroke-miterlimit="10" fill="none" fill-rule="evenodd"/><path d="M902.236 458.498 909.57 458.498 909.57 473.498 902.236 473.498Z" fill="#FFFFFF" fill-rule="evenodd"/><path d="M909.57 458.498 946.236 458.498 946.236 473.498 909.57 473.498Z" fill="#FFFFFF" fill-rule="evenodd"/><path d="M946.236 458.498 953.57 458.498 953.57 473.498 946.236 473.498Z" fill="#FFFFFF" fill-rule="evenodd"/><text font-family="Consolas,Consolas_MSFontService,sans-serif" font-style="italic" font-weight="400" font-size="13" transform="translate(902.236 470)"> <tspan x="7.33331" y="0">false</tspan><tspan fill="#FFFFFF" x="44" y="0">.</tspan></text><path d="M786 389 805 370 824 389 805 408Z" stroke="#000000" stroke-width="2" stroke-linecap="round" stroke-linejoin="round" stroke-miterlimit="10" fill="none" fill-rule="evenodd"/><path d="M0.589192-0.311925 34.6087 63.9472C34.781 64.2726 34.6569 64.676 34.3315 64.8483 34.0061 65.0206 33.6026 64.8964 33.4303 64.571L-0.589192 0.311925C-0.761463-0.0134766-0.637327-0.41692-0.311925-0.589192 0.0134766-0.761463 0.41692-0.637327 0.589192-0.311925ZM36.3763 63.0114C37.0654 64.313 36.5688 65.9268 35.2672 66.6159 33.9656 67.305 32.3518 66.8084 31.6628 65.5068 30.9737 64.2052 31.4702 62.5914 32.7718 61.9023 34.0734 61.2133 35.6872 61.7098 36.3763 63.0114Z" transform="matrix(1 0 0 -1 771.5 453.759)"/><path d="M661.5 454.5 771.119 454.5" stroke="#000000" stroke-width="1.33333" stroke-linecap="round" stroke-linejoin="round" stroke-miterlimit="10" fill="none" fill-rule="evenodd"/><path d="M686.779 483.848 694.113 483.848 694.113 498.848 686.779 498.848Z" fill="#FFFFFF" fill-rule="evenodd"/><path d="M694.113 483.848 730.779 483.848 730.779 498.848 694.113 498.848Z" fill="#FFFFFF" fill-rule="evenodd"/><path d="M730.779 483.848 738.113 483.848 738.113 498.848 730.779 498.848Z" fill="#FFFFFF" fill-rule="evenodd"/><text font-family="Consolas,Consolas_MSFontService,sans-serif" font-style="italic" font-weight="400" font-size="13" transform="translate(686.779 496)"> <tspan x="7.33337" y="0">false</tspan><tspan fill="#FFFFFF" x="44" y="0">.</tspan></text><path d="M1-5.55494e-06 1.00007 12.2331C1.00007 12.7853 0.552358 13.2331 7.35089e-05 13.2331-0.552211 13.2331-0.999929 12.7854-0.999932 12.2331L-1 5.55494e-06C-1-0.552279-0.55229-0.999997-5.55494e-06-1 0.552279-1 0.999997-0.55229 1-5.55494e-06ZM4.00006 10.8997 0.000104987 18.8997-3.99994 10.8998Z" transform="matrix(1 0 0 -1 805 370.9)"/><path d="M2.52497e-06-1 34.9128-0.999912C35.465-0.99991 35.9128-0.552194 35.9128 9.06787e-05 35.9128 0.552375 35.465 1.00009 34.9128 1.00009L-2.52497e-06 1C-0.552287 0.999999-1 0.552282-1-2.52497e-06-0.999999-0.552287-0.552282-1 2.52497e-06-1ZM33.5794-3.99991 41.5794 0.000104987 33.5794 4.00008Z" transform="matrix(-1 -8.74228e-08 -8.74228e-08 1 865.579 389)"/><rect x="737" y="189" width="155" height="163" stroke="#000000" stroke-width="2" stroke-linecap="round" stroke-linejoin="round" stroke-miterlimit="10" fill="none"/><text font-family="Consolas,Consolas_MSFontService,sans-serif" font-weight="400" font-size="13" transform="translate(748.505 203)">Handelt es sich um <tspan x="33" y="16">relevante </tspan><tspan x="11" y="32">Transformation, </tspan><tspan x="-3.66669" y="48">dann für Zeit t das </tspan><tspan x="0" y="64">Analogon der Soll</tspan>-<tspan x="7.33331" y="80">Konfiguration in </tspan><tspan x="7.33331" y="96">Outbag</tspan><tspan x="58.6667" y="96">schreiben </tspan><tspan x="-3.66669" y="112">und ggf. </tspan>Offset-<tspan x="113.667" y="112">und</tspan><tspan x="11" y="128">Start</tspan><tspan x="47.6667" y="128">-</tspan><tspan x="55" y="128">Transfor</tspan><tspan x="113.667" y="128">-</tspan><tspan x="11" y="144">mation</tspan><tspan x="62.3333" y="144">anhängen</tspan></text><path d="M359 710.5 449.5 635 540 710.5 449.5 786Z" stroke="#000000" stroke-width="2" stroke-miterlimit="8" fill="none" fill-rule="evenodd"/><text font-family="Consolas,Consolas_MSFontService,sans-serif" font-weight="400" font-size="13" transform="translate(416.74 684)">(<tspan x="7.33334" y="0">topic</tspan><tspan x="51.3333" y="0">== </tspan><tspan x="-11" y="16">/</tspan><tspan x="-3.66666" y="16">tf</tspan><tspan x="18.3333" y="16">AND t &gt;= </tspan><tspan x="-3.66666" y="32">Startzeit) </tspan><tspan x="-7.33331" y="48">OR </tspan>topic<tspan x="58.6667" y="48">== </tspan><tspan x="-7.33331" y="64">/</tspan><tspan x="0" y="64">tf_static</tspan>?</text><path d="M612 888 676.259 888" stroke="#000000" stroke-width="2" stroke-linecap="round" stroke-linejoin="round" stroke-miterlimit="10" fill="none" fill-rule="evenodd"/><text font-family="Consolas,Consolas_MSFontService,sans-serif" font-weight="400" font-size="13" transform="translate(347.988 924)">Für den Soll<tspan x="88" y="0">-</tspan><tspan x="95.3333" y="0">Zustand</tspan><tspan x="-18.3333" y="16">relevante Transformation?</tspan><tspan font-style="italic" font-size="11" x="-45.6667" y="34">vicon_world</tspan><tspan font-style="italic" font-size="11" x="45.1333" y="34">-</tspan><tspan font-style="italic" font-size="11" x="50.9667" y="34">&gt; </tspan><tspan font-style="italic" font-size="11" x="62.6333" y="34">vicon</tspan><tspan font-style="italic" font-size="11" x="91.8" y="34">/…/rb1_base_c</tspan><tspan font-style="italic" font-size="11" x="-45.6667" y="47">rb1_base_c_odom</tspan><tspan font-style="italic" font-size="11" x="45.1333" y="47">-</tspan><tspan font-style="italic" font-size="11" x="50.9667" y="47">&gt; …</tspan><tspan font-style="italic" font-size="11" x="68.4667" y="47">base_footprint</tspan><tspan font-style="italic" font-size="11" x="-45.6667" y="59">…</tspan><tspan font-style="italic" font-size="11" x="-39.8333" y="59">base_footprint</tspan><tspan font-style="italic" font-size="11" x="45.1333" y="59">-</tspan><tspan font-style="italic" font-size="11" x="50.9667" y="59">&gt; …</tspan><tspan font-style="italic" font-size="11" x="68.4667" y="59">base_link</tspan><tspan font-style="italic" font-size="11" x="-45.6667" y="72">…</tspan><tspan font-style="italic" font-size="11" x="-39.8333" y="72">base_footprint</tspan><tspan font-style="italic" font-size="11" x="45.1333" y="72">-</tspan><tspan font-style="italic" font-size="11" x="50.9667" y="72">&gt; …</tspan><tspan font-style="italic" font-size="11" x="68.4667" y="72">top_cover_link</tspan><tspan font-style="italic" font-size="11" x="-45.6667" y="85">…</tspan><tspan font-style="italic" font-size="11" x="-39.8333" y="85">base_link</tspan><tspan font-style="italic" font-size="11" x="45.1333" y="85">-</tspan><tspan font-style="italic" font-size="11" x="50.9667" y="85">&gt; …</tspan><tspan font-style="italic" font-size="11" x="68.4667" y="85">front_laser_base_link</tspan><tspan font-style="italic" font-size="11" x="-45.6667" y="98">…</tspan><tspan font-style="italic" font-size="11" x="-39.8333" y="98">front_laser_base_link</tspan><tspan font-style="italic" font-size="11" x="45.1333" y="111">-</tspan><tspan font-style="italic" font-size="11" x="50.9667" y="111">&gt; …</tspan><tspan font-style="italic" font-size="11" x="68.4667" y="111">front_laser_link</tspan></text><path d="M450 887 568.072 887C568.624 887 569.072 887.448 569.072 888 569.072 888.552 568.624 889 568.072 889L450 889C449.448 889 449 888.552 449 888 449 887.448 449.448 887 450 887ZM566.738 884 574.738 888 566.738 892Z"/><path d="M450 866 450 888.68" stroke="#000000" stroke-width="2" stroke-linecap="round" stroke-linejoin="round" stroke-miterlimit="10" fill="none" fill-rule="evenodd"/><path d="M658.203 965.916 694.87 965.916 694.87 980.916 658.203 980.916Z" fill="#FFFFFF" fill-rule="evenodd"/><text font-family="Consolas,Consolas_MSFontService,sans-serif" font-style="italic" font-weight="400" font-size="13" transform="translate(658.203 978)">false</text><path d="M646 158 680.913 158C681.465 158 681.913 158.448 681.913 159 681.913 159.552 681.465 160 680.913 160L646 160C645.448 160 645 159.552 645 159 645 158.448 645.448 158 646 158ZM679.579 155 687.579 159 679.579 163Z"/><path d="M0 0 0.000104987 37.7995" stroke="#000000" stroke-width="2" stroke-linecap="round" stroke-linejoin="round" stroke-miterlimit="10" fill="none" fill-rule="evenodd" transform="matrix(1 0 0 -1 866 389.799)"/><path d="M1-4.62911e-06 1.00007 16.013C1.00008 16.5653 0.552364 17.013 7.87552e-05 17.013-0.552206 17.013-0.999923 16.5653-0.999926 16.013L-1 4.62911e-06C-1-0.55228-0.552289-0.999997-4.62911e-06-1 0.55228-1 0.999997-0.552289 1-4.62911e-06ZM4.00007 14.6797 0.000104987 22.6797-3.99993 14.6797Z" transform="matrix(1 0 0 -1 1036 188.68)"/><path d="M1028 158.5C1028 154.358 1031.36 151 1035.5 151 1039.64 151 1043 154.358 1043 158.5 1043 162.642 1039.64 166 1035.5 166 1031.36 166 1028 162.642 1028 158.5Z" stroke="#000000" stroke-width="2" stroke-linecap="round" stroke-linejoin="round" stroke-miterlimit="10" fill="none" fill-rule="evenodd"/><path d="M688 158.5C688 154.358 691.358 151 695.5 151 699.642 151 703 154.358 703 158.5 703 162.642 699.642 166 695.5 166 691.358 166 688 162.642 688 158.5Z" stroke="#000000" stroke-width="2" stroke-linecap="round" stroke-linejoin="round" stroke-miterlimit="10" fill="none" fill-rule="evenodd"/><path d="M1-4.70757e-07 1.0001 216.35C1.0001 216.902 0.552387 217.35 0.000102319 217.35-0.552182 217.35-0.999898 216.902-0.999898 216.35L-1 4.70757e-07C-1-0.552284-0.552285-1-4.70757e-07-1 0.552284-1 1-0.552285 1-4.70757e-07ZM4.0001 215.017 0.000104987 223.017-3.9999 215.017Z" transform="matrix(1 0 0 -1 695 389.017)"/><path d="M0 0 90.7187 0.000104987" stroke="#000000" stroke-width="2" stroke-linecap="round" stroke-linejoin="round" stroke-miterlimit="10" fill="none" fill-rule="evenodd" transform="matrix(-1 -8.74228e-08 -8.74228e-08 1 785.719 389)"/><rect x="658" y="284" width="71" height="64" fill="#FFFFFF"/><path d="M675.255 284.505 682.588 284.505 682.588 299.505 675.255 299.505Z" fill="#FFFFFF" fill-rule="evenodd"/><path d="M682.588 284.505 719.255 284.505 719.255 299.505 682.588 299.505Z" fill="#FFFFFF" fill-rule="evenodd"/><path d="M664.255 300.505 730.255 300.505 730.255 315.505 664.255 315.505Z" fill="#FFFFFF" fill-rule="evenodd"/><path d="M667.921 316.505 726.588 316.505 726.588 331.505 667.921 331.505Z" fill="#FFFFFF" fill-rule="evenodd"/><path d="M664.255 332.505 722.921 332.505 722.921 347.505 664.255 347.505Z" fill="#FFFFFF" fill-rule="evenodd"/><text font-family="Consolas,Consolas_MSFontService,sans-serif" font-weight="400" font-size="13" transform="translate(675.255 297)"> <tspan x="7.33337" y="0">Kein </tspan><tspan x="-11" y="16">weiteres </tspan><tspan x="-7.33331" y="32">Element </tspan><tspan x="-11" y="48">in Liste</tspan></text><path d="M703 158 1021.41 158C1021.96 158 1022.41 158.448 1022.41 159 1022.41 159.552 1021.96 160 1021.41 160L703 160C702.448 160 702 159.552 702 159 702 158.448 702.448 158 703 158ZM1020.08 155 1028.08 159 1020.08 163Z"/><path d="M0 0 56.6992 0.000104987" stroke="#000000" stroke-width="2" stroke-linecap="round" stroke-linejoin="round" stroke-miterlimit="10" fill="none" fill-rule="evenodd" transform="matrix(-1 -8.74228e-08 -8.74228e-08 1 1099.7 159)"/></g></svg>